<svg width="80" height="70" viewBox="0 0 80 70" fill="none" xmlns="http://www.w3.org/2000/svg">
<path fill-rule="evenodd" clip-rule="evenodd" d="M51.9719 43.07H59.9619C57.5089 49.127 52.3879 53.814 46.0399 55.664C47.2279 54.502 48.2839 53.043 49.1809 51.336C50.4149 48.991 51.3559 46.18 51.9719 43.07ZM40.9459 43.07H50.0399C49.4559 45.877 48.5909 48.398 47.5089 50.455C45.6959 53.903 43.3779 56.002 40.9459 56.439V43.07ZM29.9619 43.07H39.0559V56.424C36.6219 55.986 34.3059 53.882 32.4929 50.434C31.4149 48.377 30.5439 45.866 29.9619 43.07ZM20.0399 43.07H28.0279C28.6429 46.169 29.5869 48.975 30.8149 51.314C31.7109 53.012 32.7579 54.486 33.9339 55.642C27.6059 53.794 22.4809 49.122 20.0399 43.07ZM52.2939 28.841H60.6219C61.2059 30.794 61.5239 32.861 61.5239 35.008C61.5239 37.154 61.2059 39.222 60.6219 41.18H52.2939C52.5869 39.211 52.7469 37.143 52.7469 35.008C52.7469 32.866 52.5869 30.809 52.2939 28.841ZM40.9459 28.841H50.3839C50.6849 30.794 50.8569 32.861 50.8569 35.008C50.8569 37.154 50.6849 39.222 50.3839 41.18H40.9459V28.841ZM29.6119 28.841H39.0549V41.179H29.6169C29.3079 39.215 29.1369 37.142 29.1369 34.991C29.1379 32.855 29.3099 30.794 29.6119 28.841ZM19.3719 28.841H27.6999C27.4149 30.803 27.2469 32.861 27.2469 34.991C27.2469 37.136 27.4149 39.204 27.7059 41.179H19.3719C18.7899 39.221 18.4719 37.153 18.4719 35.007C18.4719 32.86 18.7899 30.794 19.3719 28.841ZM33.9189 14.372C32.7529 15.522 31.6999 16.976 30.8149 18.664C29.5809 21.013 28.6329 23.836 28.0239 26.956H20.0339C22.4779 20.903 27.5909 16.226 33.9189 14.372ZM46.0439 14.35C52.3939 16.204 57.5189 20.888 59.9619 26.955H51.9719C51.3629 23.846 50.4149 21.026 49.1809 18.683C48.2899 16.981 47.2279 15.513 46.0439 14.35ZM40.9459 13.574C43.3779 14.013 45.6959 16.117 47.5089 19.565C48.5909 21.628 49.4619 24.148 50.0439 26.956H40.9459V13.574ZM39.0559 13.56V26.956H29.9499C30.5339 24.137 31.4089 21.606 32.4929 19.539C34.3059 16.095 36.6219 13.997 39.0559 13.56ZM39.9969 11.595C27.0809 11.595 16.5869 22.09 16.5869 35.007C16.5869 47.924 27.0809 58.412 39.9969 58.412C52.9189 58.412 63.4149 47.923 63.4149 35.007C63.4149 22.09 52.9189 11.595 39.9969 11.595Z" fill="#E8C7AA"/>
<path d="M29.353 64.18C28.248 65.956 26.732 67.122 24.931 67.331C23.185 67.534 21.16 66.727 19.118 65.132C20.966 64.273 22.669 63.372 24.528 63.165C26.388 62.95 27.716 63.331 29.353 64.18ZM13.774 55.194C15.7 55.388 17.106 56.273 18.715 58.128C17.033 59.367 15.195 59.894 13.445 59.419C11.746 58.961 10.164 57.461 8.86104 55.222C10.388 55.137 11.847 54.997 13.774 55.194ZM3.11804 41.976C5.03404 42.669 6.87204 43.232 8.05904 43.992C9.34004 44.815 10.289 46.18 11.039 48.517C9.00804 48.997 7.10504 48.757 5.68404 47.637C4.30604 46.549 3.43504 44.549 3.11804 41.976ZM2.54004 27.601C4.06004 28.956 5.56004 30.158 6.38404 31.309C7.26304 32.543 7.63804 34.163 7.46604 36.617C5.40004 36.304 3.72804 35.382 2.82104 33.809C1.94604 32.284 1.87804 30.106 2.54004 27.601ZM7.85304 13.831C8.65004 15.705 9.49404 17.435 9.74404 18.825C10.014 20.32 9.66004 21.945 8.46304 24.085C6.72304 22.923 5.60404 21.372 5.45704 19.565C5.31504 17.814 6.18504 15.814 7.85304 13.831ZM16.935 3.382C17.191 5.403 17.378 7.294 17.244 8.705C17.098 10.216 16.473 11.684 14.732 13.419C13.378 11.831 12.722 10.033 13.072 8.252C13.409 6.527 14.79 4.841 16.935 3.382ZM17.185 0.975999C13.863 2.768 11.863 5.241 11.341 7.913C10.868 10.314 11.618 12.779 13.384 14.767C12.644 15.814 11.972 16.893 11.368 18.007C10.909 16.043 9.95604 14.194 8.97204 11.783C8.71604 11.163 7.91904 10.996 7.44104 11.444C4.68504 14.026 3.47804 16.99 3.69704 19.704C3.92004 22.412 5.60304 24.793 8.29104 26.204C7.99804 27.48 7.79104 28.767 7.65404 30.069C6.38804 28.392 4.67004 27.111 2.68104 25.272C2.15404 24.788 1.38404 25.022 1.15004 25.616C-0.224963 29.136 -0.0689635 32.33 1.29104 34.688C2.59804 36.96 5.01404 38.36 7.90404 38.573C8.11304 39.845 8.40004 41.105 8.76304 42.36C6.96604 41.283 4.91904 40.688 2.38404 39.767C1.59104 39.475 1.07504 39.991 1.09104 40.653C1.17504 44.424 2.45004 47.336 4.59104 49.022C6.65404 50.653 9.42504 51.055 12.196 50.169C12.878 51.289 13.622 52.36 14.434 53.388C12.289 53.038 10.118 53.446 7.32104 53.476C6.58704 53.481 6.21604 54.216 6.47704 54.798C8.02804 58.241 10.356 60.407 12.981 61.122C15.512 61.809 18.211 61.101 20.403 59.21C21.446 59.986 22.528 60.7 23.653 61.35C21.518 61.819 19.628 62.97 17.04 64.079C16.372 64.366 16.263 65.127 16.747 65.622C19.403 68.303 22.431 69.398 25.134 69.085C27.743 68.784 29.993 67.122 31.331 64.538C32.269 64.794 33.216 65.017 34.181 65.188C35.447 65.445 35.785 63.516 34.503 63.33C24.103 61.497 15.399 54.403 11.503 44.584C7.65904 34.902 9.05604 23.682 15.153 15.532C16.7 13.46 18.831 11.996 19.153 8.871C19.383 6.688 18.846 4.532 18.565 1.721C18.493 0.996999 17.743 0.673999 17.185 0.975999Z" fill="#E8C7AA"/>
<path d="M50.6491 64.18C51.7531 65.956 53.2681 67.122 55.0711 67.331C56.8151 67.534 58.8371 66.727 60.8841 65.132C59.0341 64.273 57.3311 63.372 55.4721 63.165C53.6121 62.95 52.2841 63.331 50.6491 64.18ZM66.2281 55.194C64.2941 55.388 62.8881 56.273 61.2791 58.128C62.9671 59.367 64.8061 59.894 66.5561 59.419C68.2471 58.961 69.8311 57.461 71.1381 55.222C69.6121 55.137 68.1531 54.997 66.2281 55.194ZM76.8841 41.976C74.9661 42.669 73.1281 43.232 71.9351 43.992C70.6541 44.815 69.7121 46.18 68.9561 48.517C70.9931 48.997 72.8881 48.757 74.3151 47.637C75.6961 46.549 76.5651 44.549 76.8841 41.976ZM77.4621 27.601C75.9411 28.956 74.4411 30.158 73.6181 31.309C72.7311 32.543 72.3621 34.163 72.5341 36.617C74.5971 36.304 76.2741 35.382 77.1801 33.809C78.0561 32.284 78.1181 30.106 77.4621 27.601ZM72.1491 13.831C71.3521 15.705 70.5081 17.435 70.2531 18.825C69.9821 20.32 70.3371 21.945 71.5401 24.085C73.2741 22.923 74.3941 21.372 74.5441 19.565C74.6851 17.814 73.8151 15.814 72.1491 13.831ZM63.0651 3.382C62.8091 5.403 62.6221 7.294 62.7581 8.705C62.9031 10.216 63.5281 11.684 65.2621 13.419C66.6171 11.831 67.2741 10.033 66.9301 8.252C66.5911 6.527 65.2061 4.841 63.0651 3.382ZM62.8151 0.975999C66.1371 2.768 68.1371 5.241 68.6591 7.913C69.1281 10.314 68.3781 12.779 66.6181 14.767C67.3561 15.814 68.0281 16.893 68.6341 18.007C69.0871 16.043 70.0441 14.194 71.0291 11.783C71.2791 11.163 72.0821 10.996 72.5601 11.444C75.3101 14.026 76.5251 16.99 76.3061 19.704C76.0811 22.412 74.4001 24.793 71.7121 26.204C72.0031 27.48 72.2121 28.767 72.3471 30.069C73.6131 28.392 75.3261 27.111 77.3221 25.272C77.8471 24.788 78.6191 25.022 78.8531 25.616C80.2281 29.136 80.0661 32.33 78.7121 34.688C77.3991 36.96 74.9871 38.36 72.0971 38.573C71.8881 39.845 71.6031 41.105 71.2381 42.36C73.0291 41.283 75.0821 40.688 77.6191 39.767C78.4101 39.475 78.9261 39.991 78.9101 40.653C78.8221 44.424 77.5511 47.336 75.4101 49.022C73.3471 50.653 70.5761 51.055 67.8061 50.169C67.1221 51.289 66.3721 52.36 65.5661 53.388C67.7121 53.038 69.8791 53.446 72.6811 53.476C73.4151 53.481 73.7851 54.216 73.5191 54.798C71.9721 58.241 69.6441 60.407 67.0131 61.122C64.4881 61.809 61.7901 61.101 59.5911 59.21C58.5561 59.986 57.4721 60.7 56.3411 61.35C58.4821 61.819 60.3681 62.97 62.9621 64.079C63.6281 64.366 63.7371 65.127 63.2471 65.622C60.5971 68.303 57.5711 69.398 54.8621 69.085C52.2531 68.784 50.0081 67.122 48.6691 64.538C47.7311 64.794 46.7841 65.017 45.8211 65.188C44.5551 65.445 44.2161 63.516 45.4971 63.33C55.8991 61.497 64.6021 54.403 68.4971 44.584C72.3411 34.902 70.9461 23.682 64.8471 15.532C63.3001 13.46 61.1651 11.996 60.8411 8.871C60.6181 6.688 61.1501 4.532 61.4351 1.721C61.5031 0.996999 62.2531 0.673999 62.8151 0.975999Z" fill="#E8C7AA"/>
</svg>