<?xml version="1.0" encoding="UTF-8" standalone="no"?>
<!-- Created with Inkscape (http://www.inkscape.org/) -->

<svg
   width="1920"
   height="1080"
   viewBox="0 0 507.99999 285.75"
   version="1.1"
   id="svg1"
   xml:space="preserve"
   xmlns="http://www.w3.org/2000/svg"
   xmlns:svg="http://www.w3.org/2000/svg"><defs
     id="defs1" /><path
     id="rect1"
     style="fill:#06304b;stroke-width:3.0019;fill-opacity:1"
     d="M 0 0 L 0 285.75 L 508 285.75 L 508 0 L 0 0 z M 453.18939 93.927082 C 454.56749 93.925082 461.97488 103.84629 461.62763 105.22975 C 461.4004 106.13486 459.69614 107.9829 457.81391 109.3649 C 456.0849 110.63446 456.03709 110.70983 456.49255 111.43919 C 456.75194 111.85453 457.01129 111.89797 458.5596 111.78594 C 460.13041 111.67218 460.42794 111.72506 461.19872 112.25206 C 464.57754 114.56166 468.3563 122.49595 467.53787 125.56236 C 467.27518 126.54647 467.30903 126.68592 468.14145 128.03456 C 469.25402 129.83706 469.35003 129.86653 471.22084 128.98179 C 472.76747 128.25035 474.6821 127.68372 476.66909 127.36949 C 477.70877 127.20501 477.73742 127.22031 478.54856 128.38854 C 479.00153 129.04091 480.75323 131.44241 482.44135 133.72517 C 484.12943 136.00793 485.51041 138.1108 485.51041 138.39827 C 485.51041 143.06464 471.92772 152.35888 467.83397 150.49365 C 466.91056 150.07293 459.95383 140.7964 459.95383 139.98577 C 459.95383 139.22001 461.05566 137.44378 462.98776 135.09408 C 464.48503 133.2732 464.74872 132.55197 464.11068 132.02243 C 463.81939 131.78071 463.32651 132.44789 461.31086 135.8129 C 452.7595 150.08863 448.5332 154.94596 443.81787 155.91813 C 442.09488 156.27338 442.23139 155.90252 442.56575 159.32361 C 442.85494 162.2824 442.70086 162.49279 433.67533 171.43295 C 429.31851 175.7487 424.62614 180.4626 423.24806 181.90879 C 418.93935 186.43061 415.72924 188.1581 410.04939 189.0112 C 407.50661 189.39311 406.56981 189.7391 403.6136 191.38728 C 402.03724 192.26616 400.19502 192.38141 398.88676 191.68339 L 398.88676 191.68546 C 397.72433 191.06523 393.51784 187.3008 391.71407 185.26673 C 389.86401 183.18043 388.38556 182.42067 383.15955 180.86958 C 375.60946 178.62864 372.01 174.43562 370.34328 165.93974 C 369.91437 163.7532 369.86751 163.66164 368.34495 162.0392 C 364.83973 158.30401 363.43474 153.05554 363.39022 143.53129 L 363.36593 138.39465 L 356.16844 138.32851 C 348.97077 138.26191 348.9706 138.26206 348.84227 138.82977 C 348.77177 139.14194 347.46592 146.49794 345.94012 155.17657 C 344.41431 163.85521 343.13385 170.98772 343.09482 171.02677 C 343.05602 171.06577 338.51968 171.0686 333.01481 171.0309 L 323.00612 170.96527 L 325.82404 155.05513 C 327.37403 146.30458 328.64719 138.94795 328.65332 138.70678 C 328.66652 138.14064 316.78578 138.01726 316.57396 138.5812 C 316.50936 138.75339 315.17938 146.13871 313.61858 154.99261 L 310.78103 171.09033 L 300.67622 171.09033 C 290.57129 171.09033 290.5711 171.09028 290.70112 170.52654 C 290.77262 170.21647 291.45107 166.41102 292.20903 162.07021 C 292.96697 157.72939 293.64597 153.92396 293.71747 153.61388 C 293.84734 153.05014 293.84691 153.05009 282.44219 153.05009 C 276.16952 153.05009 271.03472 153.07853 271.031 153.11313 C 271.027 153.14753 270.31469 157.17815 269.44763 162.07021 L 267.87099 170.96476 L 145.18028 171.00403 C 65.958611 171.02963 22.489583 170.95745 22.489583 170.80043 C 22.489583 170.54425 25.908032 151.578 26.129154 150.60734 C 26.251747 150.06894 26.369656 150.04355 28.757934 150.04355 C 31.36549 150.04355 31.605914 149.9342 30.731974 149.14335 C 27.658771 146.36217 27.298362 139.21774 29.764074 129.95537 C 31.12564 124.84076 36.688414 119.7433 42.157633 118.59896 C 43.687144 118.27894 64.484009 118.23171 204.73065 118.22792 C 357.78578 118.22392 365.54125 118.20229 365.38493 117.78506 C 363.16512 111.85905 352.04578 104.00445 342.70104 101.76175 C 340.60812 101.25945 340.59871 101.22959 342.16516 100.07968 C 351.93149 92.910569 369.81891 92.524479 382.95233 99.199112 L 386.25239 100.87653 L 388.67653 99.761868 C 402.5335 93.390115 415.83561 94.030092 426.36674 101.57571 C 429.28191 103.66446 429.32379 103.68145 431.44705 103.63812 C 434.74719 103.57072 435.34391 104.28062 435.90879 108.94425 C 436.0832 110.38337 436.32832 111.28746 436.65913 111.70894 C 437.96721 113.37553 438.85838 114.77896 441.07023 118.65529 C 443.75584 123.36197 445.21237 125.51587 446.97736 127.39274 C 448.43294 128.94057 448.42831 128.80104 447.05333 129.74712 C 444.76054 131.32462 439.99563 132.77657 435.07266 133.39754 C 433.25454 133.62689 431.72729 133.85108 431.67856 133.8957 C 431.62986 133.9405 432.49906 134.43359 433.61022 134.99228 C 434.72141 135.55098 435.7445 136.2215 435.88398 136.48211 C 436.40045 137.44716 436.94561 137.34801 438.1748 136.06611 C 439.57074 134.6103 440.65008 134.07038 444.23955 133.03322 C 452.80853 130.5572 454.58371 127.6908 450.30946 123.2302 C 448.4842 121.32534 448.23242 120.58141 448.81911 118.8284 C 449.36944 117.18391 450.05818 116.46989 451.09443 116.46989 C 452.16311 116.46989 452.69075 115.66178 452.07008 114.97593 C 451.68019 114.54508 451.60759 114.55597 450.35907 115.23121 C 448.72934 116.11258 444.73051 117.28889 443.99202 117.10448 C 442.91199 116.83476 435.90104 107.734 435.90104 106.60176 C 435.90104 105.88937 437.68252 103.18065 439.54888 101.05481 C 440.78457 99.647397 440.96306 99.326986 440.7085 98.973286 C 439.65166 97.504687 439.85004 96.662473 441.48933 95.662894 C 442.62226 94.972134 443.52409 95.031911 444.11087 95.83756 L 444.59508 96.502636 L 446.75257 95.576077 C 448.98627 94.616668 451.66716 93.930022 453.18939 93.927082 z M 451.18331 95.491328 C 447.81071 96.027694 442.0255 99.648816 439.12048 103.59936 C 437.13931 106.29358 437.13614 106.34237 438.77218 108.55461 C 440.37871 110.72695 440.33166 110.7046 441.26815 109.72715 L 441.96837 108.99593 L 441.06455 107.81202 C 439.90528 106.29377 439.91025 105.59961 441.08832 104.39311 C 442.26856 103.1844 442.47609 103.19988 443.27165 104.55744 C 444.17335 106.09607 444.29995 106.1227 445.4958 105.02201 C 447.57073 103.11218 450.58244 101.3885 453.94076 100.18872 C 456.14591 99.400909 456.15569 99.380899 455.01718 98.00797 C 454.46771 97.345391 453.81005 96.47994 453.55577 96.08509 C 453.16377 95.476351 452.30751 95.312539 451.18331 95.491328 z M 364.80925 96.342439 C 359.3131 96.149898 353.5935 97.186871 347.37414 99.444058 C 344.80554 100.37627 344.8157 100.40954 347.95705 101.29459 C 355.06069 103.29592 362.07369 108.45623 366.45463 114.90565 C 368.33501 117.67389 367.95287 117.62219 369.64462 115.33456 C 372.70132 111.20132 376.1852 107.84208 380.40365 104.96052 C 382.77936 103.33765 383.99179 102.30285 383.76365 102.09196 C 383.70705 102.03976 382.42023 101.37647 380.90388 100.61866 C 375.578 97.957023 370.3054 96.53498 364.80925 96.342439 z M 405.94576 97.628148 C 398.22263 97.759745 390.2113 100.73238 382.41231 106.66326 C 370.65162 115.60687 365.16666 126.27601 365.13275 140.27361 C 365.11515 147.74721 365.88462 153.05643 366.32389 148.48706 C 366.40699 147.62133 366.67732 146.34938 366.92437 145.66036 L 367.37395 144.40772 L 367.53674 148.04057 C 367.98296 157.96795 371.56742 163.46273 378.55622 164.93205 C 379.9927 165.23407 380.08115 165.28644 379.43782 165.45708 C 378.50046 165.70572 375.72803 165.43949 374.04021 164.93773 C 372.2775 164.41425 372.19238 164.56338 372.74159 167.21305 C 374.19756 174.23753 376.89209 176.93959 385.11499 179.62108 C 388.71936 180.79645 388.76432 180.79023 388.33702 179.19268 C 387.87251 177.45591 388.0349 177.57879 390.63352 180.92797 C 395.94307 187.7712 399.83612 190.76198 402.16615 189.78841 L 402.16666 189.78893 C 402.6209 189.59909 403.59676 188.9072 404.33501 188.25156 C 405.64187 187.09084 407.52513 186.09131 411.81517 184.28229 C 414.32879 183.22232 414.05535 183.74707 411.01315 185.8207 C 408.62584 187.44796 410.24139 187.59508 414.20624 186.11164 C 417.13393 185.01625 422.49844 180.33814 432.72294 169.9643 C 441.25519 161.30741 441.66099 160.74021 440.79686 158.67765 L 440.3819 157.68701 L 439.96642 158.37018 C 439.47619 159.1756 438.74873 159.57294 439.03263 158.88022 C 439.51627 157.70011 439.45302 156.43451 438.86726 155.57707 C 438.05233 154.3841 437.83314 154.38819 437.01363 155.61221 C 436.29081 156.69192 435.78081 156.46802 436.38628 155.33677 C 437.1857 153.84304 436.29884 151.37697 434.7502 150.78821 C 433.54951 150.33172 431.1406 151.73563 431.1406 152.89196 C 431.1406 153.3753 431.15591 153.3737 431.72041 152.84493 C 432.57991 152.03746 432.71548 152.17961 432.14778 153.29245 C 431.86932 153.8382 431.64187 154.44746 431.64187 154.64637 C 431.64187 154.896 431.27282 155.04053 430.45124 155.11301 C 429.79666 155.17081 429.04534 155.3134 428.78158 155.4303 C 428.42284 155.58905 428.35207 155.56242 428.49942 155.32385 C 428.60768 155.14856 429.09651 154.83784 429.58566 154.63345 C 430.581 154.21758 430.32684 153.81409 429.06528 153.80715 C 426.28088 153.79175 425.60008 154.99795 425.68461 159.79593 L 425.75385 163.7006 L 426.63029 163.84529 C 427.61979 164.00912 427.48864 164.08414 425.12702 164.70622 C 422.98276 165.27106 422.21027 165.67716 420.93038 166.91177 C 419.77192 168.02917 419.68323 168.00422 420.22241 166.71385 C 420.64078 165.71254 420.56068 165.60941 418.77185 164.84265 C 411.38049 161.67434 404.65535 163.72914 399.96111 170.59062 C 399.21097 171.6871 399.05158 171.82298 399.18028 171.25569 C 399.37365 170.40409 398.98126 169.83924 398.19636 169.83924 C 397.24218 169.83924 396.45759 168.77206 395.95361 166.78878 C 395.36493 164.47234 394.98184 163.69036 393.84314 162.48207 C 392.99925 161.58663 392.97825 161.52837 393.55789 161.69969 C 395.55246 162.28927 396.02729 162.85621 396.80937 165.57956 C 397.63706 168.46165 399.61409 169.41592 400.79569 167.50399 C 401.33436 166.63243 403.69251 164.30353 404.93032 163.42051 C 407.27848 161.7454 404.96365 155.66164 401.27731 153.81955 C 398.87846 152.62085 398.65306 152.6922 396.96026 155.18432 C 395.20803 157.76387 393.52594 159.294 391.13581 160.48271 C 389.19787 161.4465 388.11726 161.5308 389.62221 160.60053 C 391.50862 159.43468 392.94253 157.43832 393.93822 154.59108 L 394.50253 152.97671 L 394.67978 154.26707 C 394.91669 155.9897 395.1749 156.06118 395.91071 154.60917 C 402.7708 141.07144 384.19081 128.54984 371.54993 138.19156 C 370.25327 139.18054 370.93045 138.10938 372.4863 136.71052 C 374.52509 134.87744 378.91601 133.0079 381.1819 133.0079 C 381.43315 133.0079 381.22821 132.45142 380.67702 131.63951 C 379.90947 130.50845 378.46296 127.05205 378.59446 126.66307 C 378.64906 126.50101 378.8967 126.76262 379.1443 127.24495 C 379.39187 127.72723 379.74849 128.2122 379.9365 128.3224 C 380.12436 128.43264 380.27859 128.73586 380.27859 128.99678 C 380.27859 129.66836 382.93876 132.7234 383.68717 132.91127 C 384.61595 133.14437 384.68428 132.87068 383.95951 131.82193 C 382.81714 130.1689 381.57314 127.15662 380.9261 124.47767 C 380.24608 121.66224 380.25344 121.0339 380.94574 122.76615 C 383.4594 129.04942 386.32153 132.92074 389.26926 134.02438 C 391.74232 134.95029 395.38005 137.84516 396.45487 139.74237 C 396.65949 140.1036 397.10097 140.84998 397.43569 141.40119 C 398.6864 143.46094 399.17455 145.43575 399.18493 148.48086 C 399.19593 151.56913 399.07893 151.35771 400.93418 151.67239 C 404.62254 152.29806 407.19332 155.60652 407.55496 160.1928 C 407.70975 162.15256 407.72693 162.19533 408.33941 162.11052 C 411.28562 161.70253 415.03946 162.00445 417.8608 162.8774 C 424.21388 164.84278 424.37513 164.76729 424.37513 159.81505 C 424.37513 154.71412 424.77238 153.87647 427.64624 152.92193 C 428.85278 152.52118 429.04578 152.25912 428.733 151.44398 C 428.52089 150.89105 428.25117 150.94265 427.05093 151.76645 C 422.1432 155.13485 415.38989 156.62944 411.34595 155.2422 C 410.21849 154.85542 410.21895 154.85513 412.42185 154.83034 C 419.24897 154.75354 426.10423 151.10607 430.51015 145.20612 C 431.75331 143.54138 430.99091 140.02298 429.38722 140.02298 C 428.6398 140.02298 426.88016 140.79126 426.88453 141.11542 C 426.89353 141.74309 427.34183 142.09338 427.98111 141.97118 C 428.94407 141.78708 428.82913 142.50109 427.69482 143.74626 C 424.88878 146.82654 419.02909 148.54184 411.31339 148.54184 C 406.98501 148.54184 406.92184 148.5671 407.91877 149.89628 C 408.94823 151.26882 408.96248 151.37342 408.05416 150.90552 C 400.89265 147.21651 396.48356 130.53718 400.28099 121.49904 C 401.10963 119.52673 401.08064 119.46244 399.76268 120.35803 C 398.7632 121.0372 397.83249 122.45242 396.90807 124.69988 C 396.37357 125.99936 396.32439 126.0503 396.31896 125.30863 C 396.27506 119.38823 404.39295 114.4234 407.02166 118.76278 C 408.09759 120.53889 408.00318 120.96184 406.7917 119.79114 C 405.93504 118.96335 405.50045 118.72609 404.83833 118.72609 L 403.98671 118.72609 L 404.62284 119.41545 C 406.26205 121.1903 408.5932 125.46718 409.87627 129.05414 C 411.32903 133.11536 411.85684 133.53389 417.25876 134.90649 C 421.7991 136.06013 425.12339 135.99059 427.44419 134.69307 C 428.63993 134.02467 428.63345 133.75928 427.42145 133.75928 C 424.20584 133.75928 419.83567 131.82816 416.39939 128.88877 C 414.76357 127.4895 414.83459 127.47352 417.01847 128.75235 C 424.63591 133.21241 433.91568 133.44711 443.49954 129.42207 C 445.61275 128.53457 445.67871 128.41089 444.63074 127.30696 C 443.50225 126.11812 442.80043 125.06219 439.84498 120.1043 C 430.88965 105.08171 418.81765 97.40882 405.94576 97.628148 z M 456.82379 100.9897 C 454.17922 100.54257 446.98443 104.68456 443.28198 109.13184 C 441.09242 111.76183 441.10663 111.63486 442.76057 113.83233 C 444.34007 115.93088 444.37513 115.95106 445.09066 115.15628 C 445.98419 114.16367 445.99267 113.98586 445.19091 113.07268 C 444.18529 111.92734 444.21815 111.31205 445.34749 110.15555 C 446.51328 108.96164 446.87697 108.97027 447.75613 110.21291 C 448.63743 111.45861 448.70841 111.455 450.22729 110.0894 C 451.87914 108.60427 454.54244 107.02377 457.38603 105.84108 C 459.9636 104.76904 460.01973 104.67742 458.94821 103.29189 C 458.53272 102.75463 457.9509 101.93723 457.65526 101.47494 C 457.48662 101.21125 457.20159 101.05358 456.82379 100.9897 z M 431.3995 104.93365 C 430.62595 104.97424 430.94242 105.53501 432.32296 106.83379 C 434.36543 108.75535 434.2448 108.72489 434.0257 107.26374 C 433.77959 105.62273 433.52368 105.24321 432.53742 105.05819 C 432.03634 104.96419 431.65735 104.92012 431.3995 104.93365 z M 421.93445 110.8568 C 421.90366 110.67934 422.18656 110.91474 422.76747 111.47381 C 426.99818 115.54632 426.31624 122.57574 421.90861 120.32599 C 421.42396 120.07862 421.13676 120.10913 420.27977 120.49807 C 419.1995 120.98859 417.36633 121.10382 416.46295 120.73837 C 415.84548 120.48858 414.60415 119.07444 414.60415 118.62067 C 414.60415 118.17178 413.77279 117.47345 413.23834 117.47345 C 412.51187 117.47345 413.23151 116.79659 414.31114 116.46524 C 414.81688 116.31002 415.3784 116.13602 415.55913 116.0787 C 416.25749 115.85713 414.06381 113.27756 413.22594 113.3352 C 412.76171 113.3672 412.06801 113.8756 411.99707 114.2354 C 411.68982 115.79476 411.52676 116.08714 411.30306 115.48236 C 410.83527 114.21787 411.71146 111.81739 412.73449 111.56063 C 413.80678 111.29149 414.88052 111.97884 417.86131 114.84157 C 421.61838 118.44985 423.14242 119.19344 424.02321 117.84914 C 424.70372 116.81061 424.30994 114.86888 422.98296 112.71663 C 422.30957 111.62441 421.96524 111.03426 421.93445 110.8568 z M 404.79079 112.46187 C 405.11653 112.43911 405.40429 112.47456 405.6419 112.57659 C 405.88018 112.6789 407.23023 114.13293 408.64224 115.8074 C 417.25252 126.01766 417.51297 126.22312 421.87037 126.26103 C 424.4772 126.28403 424.4932 126.28719 423.62427 126.67857 C 422.57167 127.15273 418.9317 127.3255 417.44428 126.97158 C 416.24267 126.68567 411.84645 122.34707 407.62163 117.27811 C 404.91237 114.02751 404.58859 113.86192 402.73149 114.77594 C 399.84217 116.19799 397.89385 118.03494 395.49989 121.59361 C 394.84566 122.56611 394.31013 123.24312 394.30978 123.09843 C 394.30945 122.95358 394.4447 122.70001 394.61002 122.53464 C 394.77538 122.36928 394.8372 122.23388 394.74799 122.23388 C 394.47651 122.23388 395.28759 120.50567 396.34428 118.83254 C 398.35779 115.64437 402.51062 112.62114 404.79079 112.46187 z M 458.79215 112.77709 C 457.74411 112.79207 456.55195 113.70627 454.56295 115.52886 C 452.73139 117.20715 452.60125 117.67594 453.67101 118.74572 C 454.78081 119.85549 455.57053 119.71935 457.61599 118.06669 C 459.35135 116.66461 459.12484 117.75936 457.32402 119.47798 C 454.74003 121.94402 456.84848 124.0213 459.86753 121.98377 C 461.80948 120.67316 461.73188 121.21956 459.69028 123.22969 C 456.89361 125.98326 459.24648 127.36137 462.39709 124.81512 C 464.01274 123.50937 463.73919 124.45227 462.07102 125.93908 L 460.67989 127.1788 L 461.47312 127.84646 C 462.3759 128.60609 462.80042 128.56036 464.30654 127.54105 C 467.27383 125.53284 466.43322 120.79734 462.15525 115.42034 C 460.74382 113.64634 459.84018 112.76212 458.79215 112.77709 z M 385.97024 114.70101 C 386.1184 114.98871 386.40992 116.06827 386.89886 118.04189 C 388.19001 123.25916 390.14253 127.27899 392.55846 129.69492 C 393.65021 130.78666 393.58535 130.87522 392.00139 130.45405 C 388.92435 129.63588 386.54007 125.25868 386.15885 119.72861 C 386.08755 118.69506 385.97274 117.06678 385.90357 116.11022 C 385.81747 114.91719 385.82207 114.4133 385.97024 114.70101 z M 427.78577 116.67091 C 427.78526 116.51418 427.90435 116.66409 428.14285 116.9727 C 428.66739 117.65176 429.2205 119.01184 429.62597 120.62158 C 429.97815 122.01986 430.79754 122.69939 432.65421 123.13253 C 434.3974 123.53917 437.4043 124.88173 437.4043 125.25334 C 437.4043 125.38409 437.37618 125.47974 437.34178 125.46573 C 437.30738 125.45253 436.71565 125.21325 436.02661 124.93604 L 436.02609 124.93604 C 435.3371 124.65882 433.59095 124.22672 432.14571 123.97589 C 429.06004 123.44036 428.63481 123.11036 428.63481 121.24996 C 428.63481 120.60133 428.41563 119.23251 428.14699 118.20829 C 427.90652 117.29077 427.78628 116.82764 427.78577 116.67091 z M 415.50642 117.52047 C 414.94478 117.59478 415.04033 117.93571 415.62682 118.88473 C 416.60122 120.46133 417.69209 120.83977 419.12635 120.09809 L 419.12687 120.09809 C 419.99292 119.65024 420.07796 119.10803 419.34391 118.71523 C 418.93328 118.49562 418.72833 118.52018 418.38428 118.83151 C 417.90905 119.26156 416.97138 119.36123 416.7513 119.00514 C 416.6756 118.88299 416.84822 118.72235 417.13422 118.64754 C 418.17504 118.37537 417.60012 117.60656 416.29293 117.52254 C 415.95341 117.50069 415.69363 117.49571 415.50642 117.52047 z M 382.7725 117.59902 L 383.24947 118.85166 C 383.51187 119.5407 384.09092 121.14436 384.53621 122.41527 C 385.58155 125.39899 387.89364 129.10114 389.73745 130.74447 C 391.29139 132.1295 391.05153 132.38259 388.92354 131.60385 C 385.86358 130.48402 383.39268 125.53776 382.92908 119.60355 L 382.7725 117.59902 z M 451.25772 118.32663 C 451.02881 118.25732 450.82519 118.26271 450.66241 118.36332 C 449.19324 119.27131 449.74551 121.40745 451.90575 123.17388 C 453.34369 124.34965 453.78272 124.44511 454.65545 123.77384 C 455.7139 122.95977 452.86011 118.81175 451.25772 118.32663 z M 402.96816 119.72861 C 402.57257 119.72861 401.33536 122.40992 400.94503 124.11335 C 400.53164 125.91752 401.70369 131.04804 403.39191 134.82433 C 404.32416 136.90964 404.4689 136.92361 404.67142 134.94938 C 404.84671 133.23926 405.54069 130.75274 405.84241 130.75274 C 406.06602 130.75274 406.12029 130.88143 407.25886 134.1267 C 408.95435 138.95896 410.53757 141.29159 410.96354 139.58476 C 411.52554 137.33296 412.28238 137.01841 413.39078 138.575 C 413.98118 139.40415 413.87952 139.6995 413.15876 139.24938 C 412.09478 138.5849 411.60666 139.55291 411.6002 142.3417 L 411.59865 143.53232 L 410.75322 142.59233 C 408.80369 140.42357 407.25868 137.47152 406.55709 134.57473 C 405.97231 132.1601 405.76775 132.78972 405.92664 136.5157 C 406.01174 138.51385 406.14656 140.59934 406.22585 141.15056 L 406.37002 142.15308 L 405.59126 141.27613 C 403.97905 139.46073 402.1611 135.8999 400.79465 131.88032 C 400.01149 129.57661 399.83499 130.78142 400.44119 134.29413 C 401.31101 139.33464 404.33248 145.65023 406.45942 146.87424 C 406.90231 147.1291 412.63985 147.50171 413.97886 147.36258 C 414.25434 147.33389 415.43776 147.18725 416.60868 147.0365 C 423.11873 146.19948 426.25615 144.48488 425.98071 141.91485 C 425.78603 140.09775 425.61253 139.84962 425.00713 140.51855 C 424.36806 141.22474 423.96757 141.15216 423.66147 140.27412 C 423.32741 139.3158 422.98843 139.32248 422.48429 140.29738 C 421.84511 141.53344 421.78892 140.96037 422.41762 139.61525 C 422.73122 138.94405 423.02751 138.33879 423.07598 138.27011 C 423.16238 138.1473 423.70758 138.79563 424.11829 139.51035 C 424.39115 139.98524 424.86445 139.60836 425.87271 138.11457 C 426.77195 136.78214 426.69011 136.72816 423.80824 136.74772 C 420.8597 136.76752 418.25679 136.41455 414.66926 135.50852 C 410.12546 134.36095 410.20118 134.42353 409.05513 130.87831 C 407.39595 125.74577 404.11097 119.72861 402.96816 119.72861 z M 279.0827 120.22987 C 266.21599 120.22987 259.51232 120.31515 259.51232 120.47998 C 259.51232 120.72749 251.58327 165.79841 251.39085 166.64461 C 251.29755 167.0541 251.75284 167.08282 258.27829 167.08282 C 265.26549 167.08282 265.2655 167.08276 265.40189 166.51903 C 265.47689 166.20899 266.19067 162.23453 266.98835 157.68701 L 268.43891 149.41879 L 280.8149 149.35419 C 287.62185 149.31829 293.27311 149.20574 293.37279 149.10356 C 293.5053 148.96796 295.34114 138.9435 295.34114 138.35538 C 295.34114 138.30818 289.76007 138.26959 282.9388 138.26959 C 271.62731 138.26959 270.53646 138.2333 270.53646 137.8598 C 270.53646 137.6346 270.66893 136.73244 270.83049 135.85527 L 271.12453 134.26054 L 283.59096 134.26054 L 296.05738 134.26054 L 296.31834 132.94537 C 296.46165 132.22191 296.98412 129.31855 297.479 126.49357 C 297.97385 123.66861 298.44022 121.1032 298.51563 120.79314 C 298.65277 120.22938 298.65296 120.22987 279.0827 120.22987 z M 320.44194 120.22987 L 320.15617 121.92072 C 319.99896 122.8509 319.44679 125.97991 318.92885 128.87379 L 317.98731 134.13548 L 325.14242 134.26054 C 332.29773 134.386 332.29755 134.38623 332.21899 135.01243 C 332.17579 135.35692 330.90765 142.66861 329.40056 151.26053 C 327.89346 159.85242 326.66016 166.92728 326.66016 166.98257 C 326.66016 167.03797 329.81725 167.08334 333.67575 167.08334 C 337.53425 167.08334 340.69153 166.99892 340.69186 166.89524 C 340.69256 166.64296 346.1607 135.54179 346.33028 134.82433 C 346.46367 134.26061 346.46359 134.26054 353.66471 134.26054 L 360.86582 134.26054 L 362.05697 127.5581 C 362.71212 123.87188 363.24647 120.71529 363.24449 120.54303 C 363.24249 120.29493 358.79186 120.22987 341.84115 120.22987 L 320.44194 120.22987 z M 309.44571 120.28826 L 302.50401 120.35493 L 298.42881 143.40572 C 296.18724 156.08365 294.34965 166.59742 294.34585 166.76966 C 294.34185 167.01286 295.89423 167.08282 301.29892 167.08282 L 308.25922 167.08282 L 312.33339 143.96951 C 314.5742 131.25712 316.40315 120.71331 316.39774 120.53889 C 316.39074 120.28925 314.90932 120.23585 309.44571 120.28826 z M 414.27755 120.47327 C 414.35875 120.39399 414.79635 120.59275 415.73483 121.11767 C 417.10128 121.88183 417.66434 122.05508 418.78167 122.05508 C 419.98678 122.05508 420.1077 122.09941 419.78419 122.42302 C 419.31916 122.88807 417.4326 123.06382 416.60868 122.71861 C 415.8901 122.41755 414.67896 121.32429 414.31011 120.6438 C 414.26331 120.55737 414.25049 120.49969 414.27755 120.47327 z M 174.32424 120.61072 C 171.15909 120.62329 169.06255 120.6935 169.06255 120.8412 C 169.06255 121.01648 161.3404 164.74432 161.15089 165.64208 L 161.00516 166.33145 L 167.86469 166.33145 L 174.72422 166.33145 L 176.17271 158.00069 C 176.96911 153.41873 177.6757 149.47237 177.74315 149.2312 C 177.89374 148.69235 192.11334 148.53694 192.11334 149.0741 C 192.11334 149.35859 189.45156 164.72434 189.22152 165.76766 C 189.09716 166.3314 189.09734 166.33145 195.95134 166.33145 L 202.80519 166.33145 L 204.3498 157.73507 C 206.23833 147.22268 206.23687 146.67341 204.31724 144.16329 C 203.96334 143.70051 204.0325 143.56767 205.36834 142.13964 C 207.30884 140.06528 207.53241 139.49451 208.42087 134.34684 C 209.70148 126.92722 208.56747 123.6955 203.91933 121.5161 C 202.93362 121.05392 183.81968 120.57303 174.32424 120.61072 z M 60.871219 120.681 C 52.816943 120.66412 44.386185 120.79841 42.967403 121.09907 C 36.95451 122.37321 33.861614 126.25274 32.349963 134.41712 C 31.076414 141.29559 31.362496 143.45688 33.920927 146.28874 C 36.000351 148.59042 36.382159 148.65829 47.732487 148.74079 C 59.178147 148.82389 58.050989 148.54908 57.532405 151.13134 L 57.247151 152.55089 L 43.268676 152.55089 L 29.289685 152.55089 L 29.026652 153.86658 C 28.882013 154.59005 28.35899 157.43671 27.863932 160.1928 C 27.368875 162.94885 26.903367 165.45757 26.82937 165.76766 C 26.674807 166.41481 57.397183 166.67658 60.373058 166.05343 C 66.109815 164.8522 69.454357 160.74286 70.864408 153.16223 C 72.221917 145.86409 71.843171 143.24708 69.051598 140.63586 C 66.626629 138.36759 66.8474 138.40525 55.468965 138.31869 L 45.478877 138.24272 L 45.648893 136.73584 C 45.742603 135.90707 45.881642 135.0672 45.957401 134.8698 C 46.0747 134.5642 48.175587 134.51117 60.099173 134.51117 C 67.801429 134.51117 74.103486 134.44721 74.103486 134.36957 C 74.103486 134.10491 76.385384 121.60994 76.514192 121.16935 C 76.602937 120.86591 68.925496 120.69788 60.871219 120.681 z M 115.21054 120.72183 C 111.83213 120.66642 108.44541 120.67166 108.41199 120.79314 C 108.40299 120.82754 107.69748 124.74586 106.84567 129.5001 L 105.29693 138.14402 L 98.073083 138.21068 L 90.848717 138.27683 L 90.992378 137.58385 C 91.274049 136.22337 93.89711 121.22704 93.89711 120.97711 C 93.89711 120.8091 91.580774 120.74513 87.089257 120.78901 L 80.281404 120.85567 L 76.327123 143.15457 C 74.152095 155.41909 72.367218 165.65103 72.360957 165.8922 C 72.341117 166.6762 85.818745 166.5523 85.999918 165.76662 C 86.071494 165.45579 86.752121 161.65166 87.512487 157.31133 C 88.272943 152.97054 88.945936 149.27789 89.008003 149.10563 C 89.134562 148.7542 103.04104 148.63204 103.25158 148.98057 C 103.31398 149.08376 102.70054 152.88937 101.88887 157.4369 C 101.07717 161.98444 100.41302 165.84602 100.41247 166.01829 C 100.41147 166.58357 113.8697 166.45967 114.03542 165.89271 C 114.2021 165.32255 121.95896 121.38944 121.95896 121.01535 C 121.95896 120.89329 118.58894 120.77724 115.21054 120.72183 z M 214.5192 120.73061 L 211.16747 139.71033 C 209.32414 150.14897 207.51225 160.40899 207.14084 162.51049 L 206.46543 166.33145 L 213.32031 166.33145 C 217.09054 166.33145 220.17519 166.27616 220.17519 166.20897 C 220.17519 166.01693 223.17247 148.99025 223.32487 148.31653 C 223.42917 147.85542 224.47382 149.87025 227.80676 156.96044 L 232.15327 166.20587 L 240.18224 166.27202 L 248.2112 166.33817 L 247.13013 164.01738 C 246.53528 162.74081 244.49661 158.42613 242.60018 154.42985 C 240.70373 150.43352 238.77541 146.34796 238.31517 145.3503 L 237.47853 143.53646 L 246.71155 132.40794 C 251.78984 126.28749 256.02125 121.15658 256.1146 121.00553 C 256.2363 120.80842 254.02854 120.73061 248.30784 120.73061 L 240.33106 120.73061 L 232.63334 130.01532 C 228.39963 135.1217 224.93562 139.18348 224.93562 139.04164 C 224.93562 138.78619 227.80318 122.74557 228.08582 121.41998 L 228.23258 120.73061 L 221.37615 120.73061 L 214.5192 120.73061 z M 135.35711 120.73113 L 125.71429 143.31683 C 120.41056 155.73903 116.03316 165.99904 115.98723 166.11699 C 115.94133 166.23473 119.00323 166.33145 122.79147 166.33145 L 129.67942 166.33145 L 130.92121 163.38744 L 132.16299 160.44344 L 138.57035 160.37677 L 144.97771 160.30959 L 145.11052 161.37878 C 145.18372 161.96675 145.31307 163.32147 145.39836 164.38945 L 145.55339 166.33145 L 152.36589 166.33145 L 159.1784 166.33145 L 157.49633 143.59382 C 156.57132 131.08817 155.80784 120.82814 155.79927 120.79366 C 155.79027 120.75926 151.18767 120.73113 145.57044 120.73113 L 135.35711 120.73113 z M 411.6374 125.74633 C 411.6863 125.59971 412.203 126.13059 412.78514 126.9261 C 413.36736 127.72162 414.42334 128.96472 415.13176 129.68821 C 416.74092 131.33153 416.1239 131.5092 414.40519 129.8975 C 413.17507 128.744 411.48372 126.20725 411.6374 125.74633 z M 433.28466 126.71371 C 434.38748 126.57707 435.5095 127.13564 434.89593 127.87488 C 434.57883 128.25694 434.39137 128.28263 433.52082 128.06298 C 431.98904 127.67645 431.73367 127.48273 432.2532 127.10128 C 432.55146 126.88228 432.91705 126.75926 433.28466 126.71371 z M 476.2903 129.0283 C 475.7046 129.07422 474.88084 129.27446 473.82689 129.62826 C 468.88821 131.28609 464.84842 134.32117 462.25033 138.32489 L 461.16358 139.99921 L 462.6224 142.01562 C 464.26705 144.28962 464.2382 144.27296 464.94681 143.37213 C 465.6205 142.51566 465.60609 142.36629 464.71478 141.0255 C 463.75267 139.5782 463.76992 139.2359 464.86878 138.01948 C 466.02686 136.73764 466.43011 136.75837 467.30584 138.14454 C 468.17281 139.51689 468.00233 139.52164 469.58529 138.08149 C 471.33859 136.48639 474.25599 134.86198 477.15898 133.86418 C 480.15062 132.83585 480.04038 133.03098 478.6452 131.23437 C 477.99387 130.3957 477.39983 129.54971 477.32487 129.35438 C 477.22377 129.09114 476.87601 128.98237 476.2903 129.0283 z M 454.64718 129.67942 C 454.31198 129.60432 453.71061 129.88181 452.88811 130.60133 C 451.14839 132.12318 448.88436 133.27072 445.67925 134.25537 C 439.63136 136.11337 436.45388 138.96651 437.05962 141.99495 C 437.2693 143.04195 437.48678 142.98548 438.2487 141.68541 C 439.63393 139.32162 443.1406 136.90195 446.61201 135.9147 C 448.35816 135.41813 448.28877 135.52745 445.86064 137.09706 C 442.51682 139.25866 442.32807 139.79211 445.18729 138.99978 C 448.86638 137.98027 451.62167 135.94972 453.89477 132.58312 C 455.02464 130.90972 455.20585 129.8046 454.64718 129.67942 z M 480.32727 134.2626 C 477.11529 134.2626 467.50189 140.98943 465.62222 144.55242 C 465.15181 145.44408 465.15169 145.44419 466.61544 147.36981 C 468.22796 149.49118 468.31024 149.53581 469.14604 148.75061 L 469.14552 148.74906 C 469.90013 148.04018 469.87786 147.74583 468.97395 146.49803 C 468.01947 145.18045 468.02978 144.99838 469.12847 143.78244 C 470.2646 142.52488 470.73399 142.5237 471.72624 143.7783 L 472.51586 144.77566 L 474.0646 143.48426 C 476.87419 141.14189 480.89391 138.93714 483.309 138.41377 C 484.21832 138.21666 481.3781 134.2626 480.32727 134.2626 z M 180.37917 134.51117 L 187.49915 134.51117 C 192.76181 134.51117 194.61913 134.58731 194.61913 134.80366 C 194.61913 134.96461 194.49458 135.81059 194.34266 136.68313 L 194.06671 138.26959 L 186.95138 138.26959 C 179.83637 138.26959 179.83657 138.26919 179.83657 137.65516 C 179.83657 137.31744 179.95872 136.472 180.10787 135.77621 L 180.37917 134.51117 z M 143.18867 135.02276 C 143.26642 134.99938 143.2586 135.23755 143.26102 135.52609 C 143.26302 135.86369 143.48716 138.78912 143.75712 142.02751 C 144.02706 145.26588 144.24987 148.11309 144.25269 148.35425 C 144.25669 148.75122 143.92578 148.79247 140.74696 148.79247 L 137.23607 148.79247 L 137.5761 147.97856 C 141.95034 137.5152 142.95544 135.09291 143.18867 135.02276 z M 363.17008 141.34228 C 363.22768 141.72313 363.22574 142.28674 363.16594 142.59491 C 363.10664 142.90306 363.05936 142.59093 363.06156 141.90245 L 363.06207 141.90245 C 363.06407 141.21346 363.11254 140.96139 363.17008 141.34228 z M 377.2948 168.82845 C 377.45551 168.84317 377.80548 169.02021 378.50454 169.37364 C 380.17304 170.21723 380.47147 170.28196 384.66282 170.70896 C 389.78709 171.231 390.81457 171.50514 392.28561 172.74294 C 392.97244 173.32083 394.27307 175.35157 393.95631 175.35157 C 393.89411 175.35157 393.94048 175.68952 394.05863 176.10294 C 394.3351 177.06688 394.30393 177.05527 393.31604 175.82596 C 391.61067 173.70386 389.80503 172.99945 385.41471 172.74449 C 384.17447 172.67259 382.7935 172.50467 382.34565 172.37139 C 381.89777 172.23799 381.53123 172.19145 381.53123 172.26752 C 381.53123 172.34382 381.36225 172.2657 381.15554 172.0944 C 380.94872 171.92287 380.77934 171.8549 380.77934 171.94351 C 380.77934 172.65052 377.37677 170.08205 377.21883 169.25582 C 377.16261 168.96126 377.13409 168.81374 377.2948 168.82845 z M 412.9443 170.25731 C 412.91775 170.31158 412.77318 170.44739 412.50505 170.67485 C 411.12037 171.85 406.09039 172.64613 404.88433 171.88098 C 404.45503 171.60863 402.68293 172.08053 401.49642 172.78325 C 400.52754 173.35691 400.32233 173.43543 400.32233 173.23335 C 400.32233 171.55992 402.79877 170.52719 406.58655 170.62059 C 410.22601 170.71039 412.0673 170.62168 412.67403 170.32965 C 412.87928 170.23066 412.97085 170.20303 412.9443 170.25731 z " /></svg>
