<?xml version="1.0" encoding="UTF-8" standalone="no"?>
<!-- Created with Inkscape (http://www.inkscape.org/) -->

<svg
   width="297mm"
   height="70mm"
   viewBox="0 0 297 70"
   version="1.1"
   id="svg1"
   xmlns="http://www.w3.org/2000/svg"
   xmlns:svg="http://www.w3.org/2000/svg">
  <defs
     id="defs1" />
  <g
     id="layer1">
    <g
       id="g2"
       transform="matrix(1.0110262,0,0,1.0110262,-1.4490303,-100.98968)">
      <path
         style="fill:#333333;fill-opacity:1"
         d="m 141.13675,167.16646 c -12.43565,-1.11074 -24.94325,-6.64592 -30.33843,-13.42613 -4.0768,-5.12338 -5.3936,-8.43977 -5.37332,-13.53281 0.0113,-2.82941 0.15184,-3.77602 0.82083,-5.52756 2.30752,-6.04147 8.60523,-12.12986 16.31344,-15.7712 1.65126,-0.78005 3.73388,-1.59427 4.62804,-1.80938 2.11533,-0.50888 2.38691,-0.79405 1.16266,-1.22083 -1.21165,-0.42238 -1.27743,-0.92033 -0.18721,-1.41707 1.08563,-0.49465 1.02639,-0.92408 -0.32515,-2.35714 -0.65193,-0.69125 -1.13802,-1.54133 -1.13802,-1.99018 0,-1.28077 1.20594,-1.31753 4.32717,-0.13192 3.3165,1.25978 5.14198,1.17291 6.81781,-0.32444 1.52743,-1.36476 1.02289,-2.08541 -2.97451,-4.24865 -1.81014,-0.97957 -3.29163,-1.88799 -3.29219,-2.01871 -0.002,-0.47352 1.86174,-0.70963 5.52652,-0.70012 2.93691,0.008 4.49481,0.19648 7.26062,0.88018 4.70738,1.16365 6.09002,1.12973 9.22501,-0.22635 2.80791,-1.21461 4.52789,-1.63846 4.80821,-1.18488 0.10136,0.164 -0.11244,0.45699 -0.47511,0.65109 -0.36268,0.1941 -0.65941,0.49407 -0.65941,0.66661 0,0.48518 0.9865,0.37489 3.01078,-0.33659 1.84983,-0.65016 3.66808,-0.81219 5.02677,-0.44796 0.68216,0.18288 0.69545,0.24416 0.24279,1.11951 -1.11963,2.16514 -6.0349,4.87225 -13.15892,7.24736 -2.41351,0.80465 -4.81174,1.55494 -5.3294,1.6673 -0.69755,0.15141 -0.84644,0.29905 -0.57516,0.57033 0.22154,0.22154 1.49728,0.35285 3.23167,0.33263 2.3249,-0.0271 3.22334,-0.19161 4.76129,-0.87177 2.56636,-1.13496 2.91271,-1.10569 2.66304,0.22513 l -0.19951,1.06347 3.95806,0.75646 c 9.37361,1.79147 17.96568,5.87787 23.60621,11.22716 5.66306,5.37064 7.81296,10.94565 6.71944,17.42447 -0.73587,4.35982 -2.51061,7.5676 -6.31925,11.42179 -1.69893,1.71923 -3.93164,3.65699 -4.96158,4.3061 -10.16676,6.40763 -24.17748,9.29046 -38.80319,7.9841 z m 12.3998,-2.24567 c 15.24095,-1.34935 26.87743,-6.69081 32.32737,-14.83914 2.11253,-3.15849 2.93936,-5.8446 2.93936,-9.54898 0,-5.17008 -1.78997,-9.02557 -6.02195,-12.97094 -5.01608,-4.67635 -11.51891,-7.85514 -20.31522,-9.9307 -1.87774,-0.44307 -4.14566,-0.84863 -5.03983,-0.90124 -1.55743,-0.0916 -1.64529,-0.0513 -2.09086,0.96107 -0.59584,1.35372 -1.06947,1.33627 -1.73722,-0.064 -0.70654,-1.48163 -1.55377,-1.6219 -8.33599,-1.38012 -8.21754,0.29295 -14.8835,1.85629 -21.69387,5.08778 -4.32653,2.05291 -6.54985,3.59807 -9.74628,6.77346 -2.06988,2.05625 -2.91921,3.19908 -3.95862,5.32656 -2.25896,4.62369 -2.52508,8.03989 -0.9618,12.34668 4.60901,12.69767 23.9109,20.97438 44.63491,19.13959 z m -38.14817,-17.23154 c -2.07394,-0.94128 -2.38371,-1.94925 -2.27292,-7.39588 l 0.0904,-4.44356 1.40717,-1.07265 c 1.39098,-1.06032 1.44752,-1.07265 4.91789,-1.07265 1.93091,0 3.97434,0.0927 4.54096,0.20605 1.27484,0.25497 2.02333,1.5654 2.09138,3.66151 l 0.0486,1.49742 -1.85208,0.097 -1.85207,0.097 -0.0988,-1.72274 -0.0988,-1.72274 -1.93736,-0.0995 c -1.06554,-0.0547 -2.28337,-0.0127 -2.70627,0.0935 l -0.76893,0.19298 0.10508,4.67635 c 0.0578,2.572 0.22043,4.79129 0.36142,4.93177 0.37423,0.37287 4.45891,0.5767 4.79627,0.23934 0.15779,-0.15779 0.35663,-0.84924 0.44188,-1.53656 0.0853,-0.68732 0.22793,-1.3226 0.31707,-1.41174 0.0891,-0.0892 0.90303,-0.0602 1.80865,0.0644 1.60492,0.22074 1.64657,0.25394 1.64657,1.31281 0,1.86047 -0.50541,2.65991 -2.13818,3.38216 -2.0982,0.92813 -6.82942,0.94195 -8.84788,0.0259 z m 13.38604,-0.1493 c -0.11433,-0.29794 0.0436,-1.15514 0.35103,-1.90488 0.81246,-1.9816 1.0432,-6.93095 0.41515,-8.90479 -0.27345,-0.85942 -0.59913,-1.90338 -0.72373,-2.31991 l -0.22654,-0.75732 6.18151,0.10702 c 3.39983,0.0589 6.28109,0.2069 6.40279,0.32897 0.1217,0.12207 0.12073,0.81708 -0.002,1.54446 -0.26154,1.54806 -0.66303,1.64397 -2.88848,0.69004 -0.81153,-0.34787 -2.17508,-0.67708 -3.0301,-0.73159 l -1.55458,-0.0991 -0.27977,2.05497 c -0.15388,1.13023 -0.19855,2.13619 -0.0993,2.23546 0.0993,0.0993 0.7748,-0.0573 1.50117,-0.34793 0.72637,-0.29063 2.0493,-0.52842 2.93984,-0.52842 h 1.61918 v 1.9509 1.9509 h -1.28924 c -0.70908,0 -1.96666,-0.22999 -2.79461,-0.51109 -0.82795,-0.28109 -1.58881,-0.42765 -1.69079,-0.32567 -0.3404,0.34041 -0.36878,1.86046 -0.0504,2.69797 0.31276,0.82262 0.33308,0.82666 3.31371,0.65751 1.64945,-0.0936 3.23956,-0.26937 3.53357,-0.39057 0.44175,-0.18212 0.55506,0.0374 0.65264,1.26436 0.0919,1.15607 0.01,1.48641 -0.37198,1.49228 -0.26954,0.004 -3.01255,0.0932 -6.09558,0.19784 -5.03889,0.17107 -5.62653,0.13555 -5.81339,-0.3514 z m 26.94291,0.22894 c -1.67244,-0.11453 -1.70446,-0.13577 -1.49883,-0.99414 0.11557,-0.4824 0.41504,-1.28377 0.6655,-1.78081 0.25046,-0.49705 0.36761,-1.04574 0.26033,-1.21932 -0.10728,-0.17358 -1.26588,-0.3156 -2.57468,-0.3156 -2.91798,0 -3.22543,0.27073 -2.92023,2.57148 l 0.21961,1.65547 h -3.44792 -3.44792 l 0.3307,-0.8698 c 0.18189,-0.47839 0.83349,-1.42633 1.44801,-2.10653 0.61452,-0.6802 1.72053,-2.43648 2.4578,-3.90283 1.31423,-2.61388 1.33612,-2.71275 1.11741,-5.04678 l -0.22309,-2.38067 h 4.90499 c 5.55144,0 5.51623,-0.0208 4.09084,2.41149 l -0.81417,1.38927 1.82287,3.86457 c 1.00258,2.12552 2.1737,4.18972 2.60249,4.58711 0.42879,0.39739 0.77962,1.02214 0.77962,1.38835 0,0.58075 -0.20434,0.66582 -1.59916,0.66582 -0.87953,0 -1.79402,0.045 -2.03219,0.1 -0.23816,0.055 -1.20205,0.0473 -2.14198,-0.0171 z m -2.53486,-6.55864 c 0.28725,-0.46479 -0.42909,-2.0463 -0.86158,-1.90214 -0.42921,0.14307 -0.94769,1.72867 -0.6595,2.01686 0.29033,0.29033 1.31868,0.21277 1.52108,-0.11472 z m 23.50897,6.57446 c -1.11914,-0.17764 -1.13165,-0.74205 -0.0451,-2.03336 0.46698,-0.55498 0.97561,-1.55385 1.13026,-2.21971 0.35683,-1.53625 0.37729,-3.64927 0.0353,-3.64927 -0.37467,0 -2.02728,1.83134 -3.46138,3.83573 -1.20355,1.68217 -1.2473,1.70866 -1.87908,1.13803 -0.35576,-0.32133 -1.23737,-1.42556 -1.95914,-2.45385 -0.72178,-1.02829 -1.51059,-1.86961 -1.75293,-1.86961 -0.6003,0 -0.59584,3.62888 0.006,4.81211 1.21444,2.38796 1.26189,2.34119 -2.37552,2.34119 -3.62636,0 -3.72269,-0.0719 -2.58851,-1.93237 0.59022,-0.96818 0.68254,-1.63271 0.68296,-4.91635 4.1e-4,-3.15343 -0.11545,-4.05895 -0.68369,-5.34355 -0.3763,-0.85068 -0.68418,-1.7351 -0.68418,-1.96535 0,-0.28479 0.79865,-0.49349 2.49776,-0.65271 2.81543,-0.26383 2.41855,-0.50607 4.81812,2.94077 0.71533,1.02753 1.5968,2.22933 1.95882,2.67067 l 0.65822,0.80243 1.07279,-1.6556 c 0.59004,-0.91058 1.64576,-2.38046 2.34605,-3.26639 l 1.27326,-1.61079 2.19813,0.10711 c 3.06651,0.14942 3.01102,0.13711 3.01102,0.66808 0,0.26275 -0.31,1.07247 -0.68889,1.79939 -0.58099,1.11464 -0.68973,1.89292 -0.69424,4.96855 -0.004,2.6554 0.13919,3.98918 0.52631,4.90591 0.93683,2.21847 0.79623,2.47958 -1.33795,2.48464 -1.02828,0.002 -2.16224,0.0566 -2.51991,0.12034 -0.35767,0.0637 -1.05267,0.052 -1.54446,-0.026 z m -82.950752,3.12917 c -0.471199,-0.37065 -0.856725,-0.87013 -0.856725,-1.10997 0,-0.83942 8.907087,-7.8057 9.506607,-7.43517 0.13635,0.0843 0.2479,0.79464 0.2479,1.5786 0,1.41122 -0.0359,1.45631 -3.605247,4.53292 -1.982892,1.70913 -3.79213,3.10752 -4.020533,3.10752 -0.228403,0 -0.800804,-0.30326 -1.272002,-0.6739 z m 103.679072,-2.52419 c -3.24775,-2.88236 -3.58616,-3.28885 -3.68012,-4.42046 -0.0569,-0.68541 0.0234,-1.37309 0.17849,-1.52816 0.45448,-0.45449 9.51691,6.52736 9.51691,7.33198 0,0.54375 -1.39327,1.81758 -1.97185,1.80282 -0.25673,-0.007 -2.07627,-1.44033 -4.04343,-3.18618 z m -106.994879,-0.73502 -0.954996,-1.00676 2.438627,-2.26237 c 2.644102,-2.453 8.293108,-7.45226 9.808048,-8.67993 2.59646,-2.10411 2.46548,2.0343 -0.15131,4.7809 -0.57214,0.60052 -2.722907,2.44036 -4.779484,4.08853 -2.056576,1.64816 -3.940041,3.24185 -4.185479,3.54152 -0.637095,0.77788 -1.090744,0.68156 -2.175406,-0.46189 z m 108.783209,-3.49332 -5.03983,-4.12158 -0.73948,-2.21046 c -0.69445,-2.07587 -0.71959,-2.8242 -0.0949,-2.8242 0.14591,0 2.15349,1.64608 4.46128,3.65794 2.30779,2.01187 5.32372,4.60297 6.70205,5.75801 l 2.50607,2.10006 -0.86951,0.90758 c -0.47824,0.49916 -1.0982,0.89557 -1.3777,0.8809 -0.2795,-0.0147 -2.7761,-1.88138 -5.54801,-4.14825 z m -111.790534,0.28629 c -0.917136,-1.24049 -0.897239,-1.76754 0.09118,-2.41518 0.441445,-0.28925 1.9412,-1.5217 3.33279,-2.73879 1.39159,-1.21709 3.952247,-3.41348 5.690348,-4.88086 l 3.160189,-2.66796 1.066757,0.9613 c 0.88261,0.79534 1.00543,1.06273 0.71145,1.54884 -0.36016,0.59556 -12.81319,11.15493 -13.155387,11.15493 -0.102233,0 -0.506029,-0.43303 -0.897325,-0.96228 z m 115.367184,-3.30137 c -2.59307,-2.14499 -5.48284,-4.49499 -6.42171,-5.22221 -0.93888,-0.72723 -1.70704,-1.53538 -1.70704,-1.7959 0,-0.26052 0.44348,-0.91715 0.98551,-1.45919 l 0.98552,-0.98552 1.53548,1.41697 c 0.84451,0.77933 3.50041,3.02646 5.90199,4.99362 2.40159,1.96716 4.70993,3.86929 5.12964,4.22695 l 0.76312,0.65031 -0.74119,1.05112 c -0.40765,0.57811 -0.96066,1.04497 -1.22891,1.03747 -0.26825,-0.007 -2.60933,-1.76864 -5.20241,-3.91362 z M 74.675549,140.0819 c -1.162412,-0.21363 -2.426909,-0.56209 -2.809994,-0.77437 -0.84292,-0.46708 -2.239207,-2.08755 -2.900292,-3.36594 l -0.484269,-0.93648 11.795047,0.01 11.795046,0.01 -2.488418,2.40477 c -1.684472,1.62785 -2.892524,2.51698 -3.739228,2.75208 -1.638714,0.45503 -8.481592,0.39387 -11.167892,-0.0998 z m 136.725681,0.16982 c -0.71534,-0.13332 -1.6664,-0.43392 -2.11348,-0.668 -1.13321,-0.59332 -4.55747,-3.98172 -4.35498,-4.30936 0.0915,-0.14809 5.27127,-0.26925 11.51056,-0.26925 h 11.34415 l -0.32382,0.92894 c -0.57354,1.64526 -2.29167,3.18886 -4.20847,3.78096 -1.96192,0.60604 -9.62125,0.95283 -11.85396,0.53671 z M 100.85014,129.92118 c -1.788327,-1.52653 -5.299945,-4.56184 -7.803602,-6.74513 -2.503657,-2.18328 -5.832383,-5.03119 -7.397168,-6.32869 -1.564786,-1.2975 -2.845065,-2.43661 -2.845065,-2.53136 0,-0.0948 0.987644,-0.0732 2.194764,0.0479 2.687748,0.26963 3.382494,0.69435 8.057104,4.92555 1.96186,1.77577 5.469147,4.77689 7.793967,6.66916 5.64954,4.59839 5.49542,4.40942 4.66547,5.72023 -0.36572,0.57762 -0.83348,1.04294 -1.03946,1.03404 -0.20598,-0.009 -1.83768,-1.26516 -3.62601,-2.7917 z m 89.92764,1.95116 c -0.37064,-0.4712 -0.6739,-0.95883 -0.6739,-1.08363 0,-0.12479 1.93234,-1.89745 4.29407,-3.93924 2.36174,-2.04179 6.3489,-5.51841 8.86035,-7.72582 2.51145,-2.2074 5.03711,-4.21927 5.61257,-4.47081 0.57546,-0.25154 1.87365,-0.45735 2.88487,-0.45735 2.22647,0 2.21318,0.0247 -1.81769,3.37379 -1.52008,1.26298 -4.23426,3.6177 -6.03151,5.23269 -5.24079,4.70933 -11.56198,9.92709 -12.02643,9.92709 -0.23563,0 -0.73168,-0.38553 -1.10233,-0.85672 z M 52.077607,131.75291 c -3.329574,-0.25036 -5.505546,-0.80941 -5.182829,-1.33157 0.105309,-0.1704 10.605346,-0.29348 25.036183,-0.29348 21.611063,0 24.854805,0.0622 24.854805,0.47628 0,0.26196 -0.256056,0.60848 -0.569013,0.77005 -0.720456,0.37194 -39.773018,0.70702 -44.139146,0.37872 z M 200.8131,131.53613 c -3.2562,-1.36913 0.97091,-1.4973 31.50203,-0.95516 13.14261,0.23338 16.27731,0.37082 15.93236,0.69857 -0.64814,0.61583 -45.99659,0.86114 -47.43439,0.25659 z m -12.58275,-3.43187 -1.04814,-1.04815 1.54212,-1.39522 c 0.84817,-0.76738 3.05956,-2.67337 4.9142,-4.23555 1.85464,-1.56217 4.40329,-3.7528 5.66368,-4.86806 2.42702,-2.14756 3.2541,-2.47201 5.86721,-2.3016 l 1.57007,0.10239 -5.11728,4.38953 c -2.8145,2.41424 -6.69553,5.74296 -8.6245,7.39717 -1.92897,1.6542 -3.55492,3.00764 -3.61322,3.00764 -0.0583,0 -0.57765,-0.47167 -1.15414,-1.04815 z m -86.89248,-3.89412 c -2.950739,-2.49076 -6.790386,-5.68195 -8.532549,-7.09153 -1.742163,-1.40957 -3.059021,-2.62082 -2.926352,-2.69165 0.132669,-0.0708 1.308708,-0.0618 2.613419,0.02 2.288867,0.14354 2.431648,0.20254 4.064378,1.67931 0.930697,0.8418 4.033254,3.55776 6.894574,6.03546 2.86132,2.47771 5.24611,4.61005 5.29952,4.73854 0.1202,0.28918 -1.27755,1.75074 -1.72286,1.8015 -0.17884,0.0204 -2.7394,-2.00084 -5.69013,-4.49161 z m -70.121145,3.2685 c -1.458857,-0.12616 -3.089147,-0.4552 -3.622866,-0.7312 -1.079067,-0.558 -2.781259,-2.564 -3.132522,-3.6916 l -0.227899,-0.73159 27.578395,-0.007 c 15.168117,-0.004 28.998819,-0.0841 30.734892,-0.17802 2.385154,-0.12908 3.378355,-0.0561 4.064379,0.29869 1.211566,0.62657 5.297408,4.4985 5.297408,5.02006 0,0.3308 -5.749514,0.39646 -29.01966,0.33139 -15.960813,-0.0446 -30.21327,-0.18437 -31.672127,-0.31054 z m 173.368335,0.0674 c -0.32416,-0.52449 3.28833,-4.14025 4.82453,-4.82889 1.28129,-0.57437 2.71376,-0.5953 31.99929,-0.46759 l 30.65796,0.13369 -0.21847,0.70208 c -0.47433,1.52428 -1.95062,3.13172 -3.54585,3.86083 l -1.62575,0.74306 -30.93788,0.10313 c -21.81151,0.0727 -31.00158,4e-5 -31.15383,-0.24631 z m -19.26237,-2.47945 c -0.55753,-0.43633 -0.98121,-1.01465 -0.94151,-1.28515 0.0397,-0.2705 1.26509,-1.50105 2.72309,-2.73455 1.458,-1.2335 3.82768,-3.27968 5.26595,-4.54706 l 2.61504,-2.30435 2.35528,0.007 2.35528,0.007 -1.62623,1.53745 c -0.89442,0.8456 -3.2975,2.92747 -5.34018,4.62638 -2.04268,1.69891 -4.31676,3.6284 -5.0535,4.28776 l -1.33953,1.19883 z m -77.32356,-1.04232 c -0.89653,-0.84559 -3.71127,-3.29326 -6.25497,-5.43925 -2.543687,-2.14599 -4.626777,-4.01154 -4.629072,-4.14567 -0.006,-0.35293 3.057942,-0.29977 4.030322,0.0699 0.76868,0.29226 9.9971,7.83806 10.86546,8.88437 0.32011,0.38571 0.18688,0.62807 -0.72946,1.327 -0.6166,0.47031 -1.2406,0.85195 -1.38666,0.84809 -0.14605,-0.004 -0.99908,-0.69887 -1.89562,-1.54446 z m 2.58551,-4.27356 c -1.79933,-1.53529 -3.9941,-3.41753 -4.87725,-4.18274 l -1.60575,-1.3913 2.11348,0.20993 c 2.53055,0.25137 3.39223,0.6595 5.63568,2.66927 0.93882,0.84103 2.34186,2.04577 3.11788,2.67719 l 1.41093,1.14803 -1.26173,0.83053 -1.26173,0.83052 z m 70.6589,2.14319 c -0.84284,-0.69009 -1.19496,-1.52055 -0.64472,-1.52055 0.13719,0 1.49063,-1.10884 3.00764,-2.46408 3.17342,-2.83502 4.7638,-3.69816 6.82257,-3.70279 l 1.46318,-0.003 -1.46318,1.38892 c -0.80474,0.76391 -2.70687,2.46999 -4.22695,3.79129 -1.52008,1.3213 -2.88078,2.59668 -3.0238,2.83418 -0.36745,0.61024 -0.90366,0.52053 -1.93474,-0.32368 z M 8.243225,120.02262 c -2.44819,-0.39347 -3.781866,-1.43238 -5.14349,-4.0067 -0.510804,-0.96574 -0.739793,-1.15975 -0.959412,-0.81287 -0.208723,0.32966 -0.289848,0.20842 -0.29345,-0.43855 -0.0033,-0.58582 0.165608,-0.89416 0.489717,-0.89416 0.272084,0 1.102662,0.40237 1.84573,0.89416 l 1.351032,0.89417 37.15222,0.0892 37.15222,0.0892 1.808407,1.99835 c 0.994623,1.0991 1.808407,2.11398 1.808407,2.25529 0,0.33126 -73.13858,0.26496 -75.211381,-0.0682 z m 204.787275,0.0313 c -0.0965,-0.15607 0.64722,-1.17226 1.65261,-2.25821 l 1.82799,-1.97444 35.81279,-0.0274 c 19.69704,-0.0151 36.65236,-0.13235 37.67849,-0.26057 1.40507,-0.17557 2.10098,-0.45854 2.81864,-1.14611 1.14717,-1.09905 1.65609,-0.88315 1.65609,0.70257 0,1.07738 -0.0389,1.12775 -0.44371,0.57417 -0.41432,-0.56661 -0.46867,-0.5312 -0.82039,0.53452 -0.20718,0.62774 -0.801,1.54786 -1.31961,2.04472 -1.98125,1.89817 -1.25779,1.86375 -41.70984,1.98433 -20.84271,0.0621 -37.0542,-0.0136 -37.15306,-0.17354 z"
         id="path1" />
    </g>
  </g>
</svg>
