<?xml version="1.0" encoding="UTF-8" standalone="no"?>
<!-- Created with Inkscape (http://www.inkscape.org/) -->

<svg
   width="1920"
   height="1080"
   viewBox="0 0 507.99999 285.75"
   version="1.1"
   id="svg1"
   xmlns="http://www.w3.org/2000/svg"
   xmlns:svg="http://www.w3.org/2000/svg">
  <defs
     id="defs1" />
  <g
     id="layer1">
    <path
       id="rect1"
       style="fill:#000000;stroke-width:1.86699;stroke:none"
       d="M 0 0 L 0 285.75 L 508 285.75 L 508 0 L 0 0 z M 268.92777 87.581217 C 270.10019 87.522082 270.32391 88.083543 269.62747 89.263802 C 268.34573 91.436188 268.68182 91.60817 271.32401 90.131449 C 273.62102 88.847608 280.46854 88.288289 282.70677 89.20179 C 287.18043 91.027649 258.41868 106.34493 250.51649 106.34493 C 249.89084 106.34493 249.37858 106.56079 249.37858 106.825 C 249.37858 108.0467 259.53927 107.33551 263.29969 105.85039 C 267.76621 104.0865 268.09991 104.08336 268.09991 105.80491 C 268.09991 108.00712 268.55778 108.20514 278.18095 110.16175 C 298.5844 114.31025 317.70019 126.92774 322.94153 139.7062 C 323.69957 141.55435 324.57707 143.58484 324.8918 144.21859 C 326.20025 146.85363 325.62775 158.44921 323.95904 163.11304 C 315.45343 186.88518 285.50802 199.94739 243.6182 198.15741 L 243.61872 198.15896 C 178.76295 195.38761 157.33758 135.23059 213.80555 114.45141 C 215.5369 113.81431 217.69679 112.06172 217.69679 111.29398 C 217.69679 111.04055 218.23643 110.32554 218.89672 109.70545 C 220.61634 108.08998 220.39447 106.99453 217.88076 104.68663 C 215.4191 102.4264 215.32368 101.21804 217.4937 99.795976 C 218.91232 98.866492 219.56992 99.005743 225.46737 101.48424 C 229.84295 103.32315 230.19752 103.39719 231.46753 102.73481 C 232.20992 102.34757 233.07178 102.02953 233.38265 102.02788 C 234.23662 102.02388 235.93754 99.637118 235.93754 98.443604 C 235.93754 96.999083 234.41026 95.721281 230.17716 93.623743 C 221.65029 89.39848 221.77351 88.671534 231.02259 88.621981 C 238.49485 88.582291 239.89498 88.742764 247.93835 90.563464 C 254.93298 92.146775 256.81174 92.025338 262.5354 89.621403 C 265.63419 88.319925 267.75535 87.640352 268.92777 87.581217 z M 7.3845622 107.6911 C 7.9760625 107.69397 8.9871527 108.09496 10.455693 108.86209 C 13.442202 110.42222 13.442326 110.42198 75.126681 110.66198 C 144.93359 110.93355 137.77741 110.45246 142.24558 115.17695 C 145.58978 118.71291 145.56715 118.72606 135.96638 118.8682 C 131.41458 118.9356 126.07025 119.06205 124.0901 119.1488 C 115.43805 119.52867 58.88474 119.66298 57.365491 119.30693 L 57.365491 119.30745 C 54.348086 118.60089 45.812768 118.45587 34.60719 118.92039 C 16.671464 119.66413 11.216509 118.08318 7.7519816 111.13844 C 6.5788534 108.78682 6.3987283 107.68632 7.3845622 107.6911 z M 324.3585 107.78205 C 327.07479 107.78205 327.2676 108.3465 325.1569 110.11783 C 324.32788 110.81345 322.22175 112.71373 320.47656 114.34082 C 310.98493 123.19024 311.01734 123.17093 308.30315 121.59775 C 305.78359 120.13736 305.86973 119.97288 311.84712 114.81573 C 318.05407 109.46036 321.03901 107.78205 324.3585 107.78205 z M 180.47426 107.84923 C 181.15167 107.8392 182.06003 107.97253 183.18158 108.27453 C 189.4789 109.97027 200.91821 119.41905 198.58995 121.00192 C 195.41271 123.16184 195.46408 123.15008 194.12252 122.02924 C 193.43371 121.45371 190.73376 119.14404 188.12237 116.89674 C 185.51096 114.64939 182.35481 112.05724 181.10884 111.13637 C 178.48999 109.20073 178.44201 107.87931 180.47426 107.84923 z M 143.15974 107.86215 C 143.69833 107.81286 144.47661 107.84469 145.49913 107.94018 C 150.39933 108.39772 154.22994 110.70467 160.75608 117.12877 C 163.07759 119.41399 166.76794 122.72849 168.95661 124.49421 C 183.41245 136.15625 183.5419 136.29857 181.59357 138.37243 C 180.27974 139.77097 179.97748 139.74046 177.37367 137.94765 C 173.79877 135.48615 167.79406 130.70826 163.21278 126.68012 C 159.17476 123.12959 151.11345 116.32167 144.63872 110.99374 C 142.08302 108.8907 141.54395 108.01001 143.15974 107.86215 z M 360.61003 107.86318 C 361.16499 107.86225 361.69803 107.91761 362.20787 108.02958 C 363.99399 108.42192 363.56787 108.93498 356.90638 114.41627 C 354.13419 116.6973 350.32729 119.97267 348.44643 121.6949 C 340.32499 129.13132 329.05605 137.95807 326.11394 139.18737 C 324.4746 139.87233 324.47483 139.87214 323.87067 137.93628 L 323.87015 137.93628 C 323.36385 136.31378 323.37693 135.91209 323.95129 135.45375 C 326.69088 133.26741 341.79514 119.95213 346.03159 115.98879 C 351.7581 110.63138 356.72534 107.86971 360.61003 107.86318 z M 157.23071 108.07144 C 160.57419 108.13264 164.60475 110.04451 167.88846 113.12746 C 169.2066 114.36498 172.00477 116.74682 174.10669 118.42068 C 176.20856 120.09455 179.36937 122.88294 181.13106 124.61668 C 182.89274 126.35041 184.92824 128.1571 185.6543 128.63194 C 187.5156 129.84911 187.02449 131.36129 184.26369 132.91178 C 183.95923 133.083 181.08289 131.0228 177.82894 128.30276 C 168.89646 120.83595 163.16809 116.21041 158.51384 112.70682 C 153.51051 108.94044 153.24991 107.99876 157.23071 108.07144 z M 498.00061 108.10451 C 500.2639 108.66379 497.96464 113.30883 492.34824 116.78719 C 489.31547 118.66544 487.76183 118.7877 465.9943 118.85528 C 453.82386 118.89498 444.7527 119.10525 444.7527 119.35189 C 444.7527 119.8803 404.14509 119.81483 399.38958 119.27902 C 397.54143 119.07094 388.26368 118.80744 378.77223 118.69353 C 365.64616 118.53592 361.46743 118.34419 361.31696 117.89306 C 361.12249 117.30919 365.13875 113.24752 367.44579 111.69499 C 368.52196 110.9708 373.97615 110.88111 430.09054 110.66198 C 491.55615 110.42215 491.55594 110.42217 494.17035 109.10187 C 495.98482 108.1857 497.24618 107.91809 498.00061 108.10451 z M 336.24924 108.26213 C 338.10611 108.26213 339.62526 108.4557 339.62526 108.69156 C 339.62526 109.26102 336.93222 112.12935 336.65645 111.85364 C 336.53851 111.73514 335.5918 112.44554 334.55322 113.43184 C 333.51465 114.41809 331.15254 116.40383 329.30445 117.84449 C 327.4563 119.28522 323.96769 122.14695 321.55195 124.20379 C 319.13626 126.26064 317.08449 127.93755 316.99202 127.93018 C 316.89962 127.92418 315.95981 127.26466 314.90378 126.46773 C 312.37374 124.55846 312.32006 124.76365 316.20085 121.46287 C 318.06334 119.87876 321.50167 116.80565 323.84122 114.63331 C 329.35998 109.50882 331.78775 108.26213 336.24924 108.26213 z M 348.55909 108.26316 C 352.53553 108.26316 351.96471 109.09543 343.22143 116.04925 C 338.99916 119.40735 334.47959 123.0798 333.1776 124.20999 C 322.74827 133.2629 321.65439 133.86559 319.82337 131.57078 L 319.82389 131.57078 C 318.20689 129.54421 318.20437 129.67149 319.88693 128.59215 C 320.64769 128.10399 322.42953 126.65333 323.8469 125.36858 C 325.26426 124.08377 327.91386 121.70772 329.73491 120.08828 C 331.55601 118.4689 334.76396 115.58548 336.86368 113.6804 C 341.22294 109.72517 344.379 108.26316 348.55909 108.26316 z M 169.13645 108.36031 C 173.20615 108.19646 175.3678 109.02286 178.62527 111.988 C 179.7096 112.97504 183.21366 116.05053 186.41188 118.82272 C 192.31516 123.93967 192.91425 124.81499 191.41467 126.13184 C 189.89315 127.46796 188.6548 127.54887 187.16997 126.4083 C 186.40246 125.81877 182.62813 122.62867 178.78237 119.31933 C 174.93662 116.00999 170.39996 112.22241 168.70133 110.90227 C 165.61293 108.50213 165.61319 108.50223 169.13645 108.36031 z M 249.00082 111.81746 C 247.07187 111.87701 245.21498 112.13075 243.6151 112.6076 C 242.69276 112.88259 240.3903 113.19929 238.4981 113.31195 C 228.65868 113.89762 212.11635 119.54132 203.66095 125.19701 C 159.70975 154.59547 203.47148 201.38757 267.06018 192.98667 L 267.06018 192.9846 C 287.87197 190.23514 303.07492 183.36458 312.33132 172.52539 C 332.26487 149.18305 316.67642 124.19534 276.26066 114.70411 C 267.66031 112.6844 267.55622 112.68455 265.54762 114.75475 C 264.13825 116.20597 263.82628 116.3422 263.31726 115.72885 C 261.22361 113.20619 254.78769 111.63883 249.00082 111.81746 z M 39.969653 119.44336 C 40.566789 119.32826 41.430991 119.33286 41.88995 119.45472 C 42.349196 119.57492 41.861569 119.66917 40.804228 119.6635 C 39.748133 119.6585 39.372525 119.55944 39.969653 119.44491 L 39.969653 119.44336 z M 464.82382 119.45317 C 465.17024 119.31426 465.58469 119.33136 465.74418 119.49296 C 465.9035 119.65227 465.62009 119.76556 465.11425 119.74515 C 464.55521 119.72245 464.44112 119.60884 464.82382 119.45576 L 464.82382 119.45317 z M 461.91392 119.46454 C 462.24389 119.3313 462.78381 119.3313 463.11385 119.46454 C 463.44382 119.59777 463.17402 119.70639 462.51389 119.70639 C 461.85382 119.70639 461.58388 119.59777 461.91392 119.46454 z M 93.11318 120.25881 C 122.17347 120.2916 148.41759 121.08023 150.25439 122.19874 C 151.50637 122.96104 158.17138 129.89393 158.54898 130.82664 C 158.70037 131.20084 142.54129 131.65412 114.48965 132.06274 C 101.46734 132.25267 96.220566 132.18217 96.727946 131.82555 C 97.237651 131.46721 91.703719 131.31667 77.766829 131.3093 C 49.176289 131.2923 45.33279 130.31972 44.126506 122.77597 C 43.819778 120.85876 43.820209 120.85848 63.913928 120.49342 C 73.426859 120.32056 83.426415 120.24788 93.11318 120.25881 z M 410.4597 120.46603 C 435.94568 120.31127 461.0006 120.4803 461.63901 121.11871 C 462.56691 122.04662 459.4148 127.07055 456.85222 128.74821 C 453.05784 131.23221 452.38851 131.2951 428.91129 131.37906 C 416.89847 131.42446 408.15003 131.58587 409.4701 131.74235 C 410.79018 131.89884 402.6899 132.05503 391.46913 132.08961 C 380.24836 132.12361 370.41962 131.98811 369.62757 131.78627 C 368.83551 131.58442 363.65121 131.39096 358.10682 131.35581 C 352.56243 131.32181 347.70196 131.0856 347.30593 130.83387 C 346.2034 130.1331 354.12976 122.46851 356.69399 121.75588 C 359.05661 121.09925 384.97372 120.62079 410.4597 120.46603 z M 421.11951 131.91598 C 421.98233 131.80938 423.27865 131.81125 423.99996 131.92115 C 424.72131 132.03058 424.01675 132.11772 422.43106 132.11545 C 420.84695 132.11245 420.25676 132.02311 421.11951 131.9165 L 421.11951 131.91598 z M 414.87028 131.92735 C 415.46434 131.81282 416.43687 131.81282 417.03088 131.92735 C 417.62496 132.04188 417.13864 132.13509 415.95084 132.13509 C 414.76275 132.13509 414.27626 132.04193 414.87028 131.92735 z M 83.551489 133.42441 C 84.434619 133.39678 85.621818 133.49938 87.104244 133.74119 C 88.569234 133.97989 106.99506 134.18237 128.05058 134.18974 C 170.67174 134.20674 168.33505 134.00721 164.88244 137.31513 C 162.07068 140.00897 87.830377 139.67534 84.036731 136.95185 C 80.987727 134.7629 80.902101 133.50731 83.551489 133.42441 z M 341.31302 133.95358 C 343.70199 133.81332 348.24407 134.10192 355.94623 134.76077 C 359.24645 135.04312 373.71961 135.35784 388.10861 135.45995 C 402.49765 135.562 414.48641 135.66133 414.75039 135.68061 C 415.01461 135.69761 416.20246 135.69744 417.39054 135.67544 C 422.05987 135.58754 424.16414 136.71365 421.74738 138.00708 C 420.60306 138.61952 379.53004 138.96996 357.22729 138.55743 L 357.22729 138.55692 C 342.18197 138.27853 341.43677 138.22163 340.80245 137.30531 C 340.43676 136.77745 339.89601 136.06398 339.59994 135.7204 C 338.68857 134.66289 338.92404 134.09384 341.31302 133.95358 z M 334.01165 138.16624 C 335.19829 138.06126 336.51111 139.136 339.39634 141.81925 C 340.98652 143.29808 345.46876 147.16773 349.35697 150.41873 C 357.10398 156.89613 356.86801 156.55229 355.37779 159.20372 C 354.20002 161.29924 353.37291 161.48622 351.62608 160.05173 C 350.96602 159.50971 349.88152 158.59889 349.21589 158.02756 C 348.55027 157.45628 345.84982 155.13704 343.21523 152.87387 C 340.58058 150.61075 336.58909 147.28255 334.34497 145.47743 C 329.52874 141.60339 329.47741 141.48786 331.69965 139.5367 C 332.63321 138.71703 333.29967 138.22923 334.01165 138.16624 z M 171.85049 138.26546 C 172.61539 138.32152 173.24325 138.91303 174.18833 139.88087 C 176.29235 142.03564 176.67187 141.39921 170.14362 146.66805 C 162.07474 153.18032 154.58387 159.45878 153.9136 160.27084 C 152.93706 161.45411 152.3213 161.26769 150.273 159.17013 C 148.04868 156.89216 147.87562 157.19942 154.28929 152.04653 C 156.82109 150.01242 161.54415 146.02583 164.78529 143.18764 C 168.92083 139.56627 170.57567 138.17204 171.85049 138.26546 z M 308.30521 139.26075 C 311.82972 139.19105 312.21849 140.20638 310.22292 144.2682 C 308.69483 147.37848 308.69891 159.06311 310.22758 160.72972 C 311.66002 162.29019 312.12619 164.89734 310.98205 164.94962 C 310.49899 164.97232 308.05177 165.07857 305.54362 165.1863 C 303.03541 165.29403 300.44326 165.49874 299.78325 165.64105 C 298.86595 165.83836 298.75299 165.78411 299.30318 165.41161 L 299.30266 165.41109 C 299.78685 165.08338 299.82566 164.9216 299.42255 164.91707 C 297.53732 164.89437 299.50758 160.76087 301.76194 160.00935 C 302.03183 159.91925 302.31522 158.0609 302.39136 155.87937 C 302.46736 153.69784 302.36317 151.97487 302.15675 152.05067 C 301.59261 152.25932 296.90184 158.24292 296.12146 159.74942 C 295.74556 160.47543 295.28123 161.06155 295.09 161.05219 C 293.93338 160.99549 292.23227 159.38454 290.26239 156.47934 C 287.23932 152.02092 286.3417 151.86899 286.3417 155.81685 C 286.3417 157.9088 286.615 159.24137 287.25999 160.29254 C 289.65441 164.19532 289.04623 164.90947 283.22147 165.0354 C 277.94107 165.14936 277.94119 165.14929 278.10912 163.22931 C 278.20152 162.17321 278.57989 161.13667 278.94938 160.92558 C 279.96335 160.34642 279.91721 146.34398 278.89822 144.88676 C 276.33513 141.22743 277.37303 139.46797 282.09441 139.46797 C 286.6165 139.46797 286.61645 139.46796 287.5101 141.02808 C 289.2672 144.09533 293.70837 150.02857 294.24716 150.02857 C 294.95785 150.02857 299.5311 144.01295 300.77027 141.44821 C 301.81893 139.27768 301.40843 139.39722 308.30521 139.26075 z M 210.18045 139.64781 C 211.53778 139.65134 212.41649 139.84837 212.41649 140.30616 C 212.41649 140.57547 212.83264 140.90443 213.34098 141.03739 C 214.53354 141.34922 216.54972 145.33573 216.98572 148.24315 C 217.32534 150.50835 217.32538 150.50818 214.15075 150.59391 C 212.40466 150.63931 210.49032 150.69503 209.89623 150.71431 C 208.88238 150.74831 208.82584 150.58382 208.97587 148.05815 C 209.13575 145.36777 209.13594 145.36757 205.4841 145.03663 C 203.4756 144.85463 201.62151 144.83634 201.36394 144.99735 C 200.62104 145.45659 200.74833 161.06116 201.49519 161.11213 C 206.55732 161.45741 208.57775 160.80676 209.31901 158.59394 C 209.88484 156.9042 212.01248 156.23576 215.40029 156.68294 C 218.31752 157.06791 217.55047 162.62202 214.3311 164.42459 C 211.49728 166.01131 200.33143 166.46484 197.64995 165.10207 L 197.64995 165.1 C 193.62437 163.05409 193.21508 161.92672 193.21508 152.89196 C 193.21508 148.41285 193.37688 144.74792 193.57475 144.74775 C 193.77263 144.74753 194.78799 143.98779 195.83042 143.06 C 197.72749 141.37164 206.10848 139.63721 210.18045 139.64781 z M 237.49248 140.03693 C 242.35021 140.09678 241.82825 140.87422 241.60696 144.77359 C 241.42723 147.93626 239.3154 148.6238 235.81816 146.65823 C 232.46398 144.77306 229.56087 145.07152 229.17981 147.34036 C 228.60229 150.77863 228.85537 151.00023 232.18014 149.96552 C 237.59395 148.2806 238.33842 148.72815 238.33842 153.66917 C 238.33842 157.11816 238.33802 157.11828 235.09779 156.86949 C 233.31564 156.73285 231.27455 156.32568 230.56164 155.96464 C 228.73028 155.03775 228.73746 155.02995 228.73746 157.92059 C 228.73746 161.15582 228.82017 161.20439 232.87312 160.34577 C 239.81322 158.87546 241.86198 159.33553 242.09375 162.41696 C 242.35569 165.90268 242.47103 165.86946 230.21696 165.86946 C 219.33308 165.86946 219.33308 165.86956 219.22331 164.2401 C 219.14391 163.05881 219.47464 162.1814 220.42686 161.05012 C 222.20148 158.94111 222.31797 148.3867 220.61961 143.58917 C 219.34699 139.99447 218.3711 140.33187 230.63088 140.12736 C 233.65598 140.0769 235.87324 140.01698 237.49248 140.03693 z M 260.90397 140.4276 C 269.16947 140.4276 269.16943 140.42751 268.83424 142.66261 C 268.64997 143.89191 268.19347 145.20348 267.81983 145.57716 C 266.30047 147.09647 270.43407 156.86457 274.31401 160.92299 C 277.71027 164.47551 276.2682 165.71049 268.57999 165.83432 C 261.70918 165.94487 260.89713 165.14902 263.64489 160.99689 C 265.28388 158.5202 264.82616 158.20573 259.56452 158.19603 C 254.84217 158.18473 254.58905 158.46946 255.88826 162.29139 C 256.37245 163.71527 256.64157 165.00711 256.48667 165.16201 C 256.12211 165.52657 244.70603 165.83643 244.3608 165.49119 C 243.58179 164.71218 244.23718 162.35521 245.69043 160.7106 C 250.72398 155.01358 253.17469 149.44506 252.87397 144.38809 C 252.63867 140.42781 252.63875 140.4276 260.90397 140.4276 z M 136.76633 143.27084 C 145.19724 143.20514 154.27447 143.19225 157.332 143.28324 C 158.919 143.32864 158.16651 144.66367 154.7859 147.79356 C 148.8898 153.25242 144.83949 154.2223 132.73092 153.07593 L 132.7304 153.07593 C 125.87258 152.42651 121.88432 150.28311 119.72603 146.08721 C 118.57849 143.85624 118.56456 143.95331 120.07898 143.57315 C 120.55095 143.45465 128.33541 143.33654 136.76633 143.27084 z M 367.75016 143.29151 C 377.34428 143.26649 386.85953 143.33847 387.05286 143.53181 C 387.55972 144.03812 385.19033 148.04181 383.51199 149.51542 C 379.93209 152.65858 370.22451 154.09532 360.22556 152.96224 C 355.86522 152.46785 345.50685 144.58056 347.97463 143.63361 C 348.48329 143.43829 358.15605 143.31653 367.75016 143.29151 z M 328.55204 143.49563 C 329.93384 143.63062 332.81719 146.10857 344.36193 156.02872 C 352.3131 162.86104 352.1868 162.6547 349.84635 164.99458 C 348.02581 166.81466 348.02568 166.81444 340.34512 160.54421 C 332.26083 153.94436 329.06467 151.06437 329.06467 150.381 C 329.06467 150.15421 328.49268 148.76054 327.79395 147.28352 C 326.57423 144.70523 326.55903 144.57227 327.40586 143.95297 C 327.79804 143.6662 328.09144 143.45064 328.55204 143.49563 z M 176.43988 143.81603 C 177.19734 143.66629 177.59592 144.16054 178.14727 145.002 C 179.23427 146.66095 176.80975 151.62433 173.62299 154.26345 C 172.45055 155.23445 170.81676 156.58585 169.99221 157.26689 C 169.16774 157.94794 166.98122 159.6432 165.13307 161.0341 C 163.28492 162.42493 160.90882 164.35643 159.85278 165.32634 C 157.93264 167.08978 157.93257 167.09002 155.78584 164.75842 C 153.93651 162.74982 153.74901 162.36502 154.43192 161.98288 C 155.4413 161.41818 164.44727 153.94501 167.29521 151.30911 C 172.91863 146.10448 175.17743 144.06558 176.43988 143.81603 z M 259.749 151.50238 C 259.46805 151.58021 259.18094 151.74694 258.91495 152.01294 C 257.59193 153.33596 257.81683 153.86864 259.69939 153.86864 C 261.04521 153.86864 261.37991 153.68198 261.37991 152.93227 C 261.37991 151.83667 260.59187 151.26889 259.749 151.50238 z M 329.7344 155.73468 C 330.94486 155.3132 333.60671 157.29651 342.14552 164.08559 C 346.98629 167.93446 346.90477 167.7367 344.54538 169.9302 C 342.29265 172.02457 342.98194 172.20507 337.94113 168.20369 C 335.56711 166.3192 332.51427 163.93491 331.15705 162.9053 C 328.38702 160.80383 327.81881 159.32135 328.84349 156.86898 C 329.08833 156.283 329.33091 155.87517 329.7344 155.73468 z M 176.08331 155.85302 C 176.76516 156.14405 176.8936 157.30082 176.8936 159.20785 C 176.8936 161.23465 176.72289 161.60158 175.33348 162.55959 C 174.47538 163.15122 171.61335 165.36436 168.97315 167.47763 C 166.333 169.59095 163.94241 171.49118 163.66081 171.70063 C 163.35464 171.92798 162.20249 171.12106 160.79845 169.69559 C 159.50587 168.38335 158.69376 167.30968 158.9934 167.30968 C 159.29276 167.30968 162.48956 164.98747 166.09632 162.14928 C 172.27373 157.28823 174.94688 155.36796 176.08331 155.85302 z " />
  </g>
</svg>
