<?xml version="1.0" encoding="UTF-8" standalone="no"?>
<!-- Created with Inkscape (http://www.inkscape.org/) -->

<svg
   width="180mm"
   height="119mm"
   viewBox="0 0 180 119"
   version="1.1"
   id="svg1"
   xmlns="http://www.w3.org/2000/svg"
   xmlns:svg="http://www.w3.org/2000/svg">
  <defs
     id="defs1" />
  <g
     id="layer1">
    <path
       id="rect1"
       style="fill:#001120;fill-opacity:1;stroke-width:3.09143"
       d="M 0,0 V 119.14515 H 180 V 0 Z m 132.59696,9.40142 c 1.4192,-0.00206 9.04751,10.215033 8.6899,11.639752 -0.23401,0.932104 -1.98909,2.835258 -3.92746,4.258474 -1.78057,1.307423 -1.82981,1.385041 -1.36076,2.136153 0.26711,0.427726 0.53421,0.472462 2.12869,0.357091 1.61766,-0.117153 1.92406,-0.06272 2.71783,0.480021 3.47958,2.37848 7.37103,10.549397 6.5282,13.707258 -0.27052,1.013459 -0.23566,1.157068 0.62158,2.545929 1.14575,1.856257 1.24464,1.886605 3.17123,0.97548 1.59276,-0.753254 3.56449,-1.336794 5.61074,-1.660385 1.07068,-0.169385 1.10019,-0.153618 1.93552,1.049442 0.46648,0.671826 2.27042,3.144946 4.00889,5.495786 1.73842,2.350839 3.16058,4.516424 3.16058,4.812467 0,4.805527 -13.98777,14.376962 -18.20361,12.456105 -0.95094,-0.433257 -8.11515,-9.986454 -8.11515,-10.82126 0,-0.788598 1.13469,-2.617801 3.12441,-5.037577 1.54192,-1.875184 1.81348,-2.617924 1.15641,-3.163256 -0.29996,-0.248929 -0.80756,0.438148 -2.88332,3.903514 -8.80639,14.701459 -13.15874,19.703672 -18.01469,20.704835 -1.77437,0.365845 -1.63379,-0.01606 -1.28946,3.507043 0.29782,3.047021 0.13913,3.263695 -9.15556,12.470481 -4.48675,4.44445 -9.31907,9.298944 -10.73825,10.788267 -4.437196,4.65668 -7.743063,6.43569 -13.592295,7.31423 -2.618614,0.3933 -3.583353,0.74961 -6.627727,2.44694 -1.623372,0.90509 -3.520533,1.02378 -4.86781,0.30494 v 0.002 c -1.197098,-0.63867 -5.529039,-4.51537 -7.386604,-6.6101 C 67.383009,101.31653 65.860467,100.53411 60.4786,98.936763 52.703351,96.62899 48.996533,92.31091 47.280106,83.561665 46.838405,81.309915 46.790147,81.215624 45.222179,79.544798 41.612432,75.698222 40.16553,70.293205 40.119683,60.48492 l -0.02502,-5.289832 2.079213,-21.224236 C 39.887859,27.868108 28.436893,19.779247 18.813472,17.469673 16.658134,16.952393 16.648443,16.921642 18.26161,15.737438 28.319194,8.3545253 46.740098,7.9569218 60.26519,14.830606 l 3.398479,1.727447 2.496436,-1.147903 c 14.27022,-6.561776 27.969064,-5.9027107 38.814255,1.867935 3.0021,2.151043 3.04524,2.16854 5.23182,2.123918 3.39856,-0.06941 4.01308,0.661671 4.59481,5.464376 0.17961,1.482039 0.43204,2.413092 0.77272,2.847142 1.34709,1.716294 2.26483,3.161579 4.54265,7.153514 2.7657,4.847038 4.26568,7.065185 6.0833,8.99803 1.49899,1.593991 1.49419,1.4503 0.0783,2.424595 -2.36117,1.624546 -7.26819,3.119798 -12.33798,3.759288 -1.87233,0.23619 -3.44514,0.467066 -3.49532,0.513017 -0.0502,0.04614 0.84497,0.553931 1.98927,1.129283 1.14433,0.575363 2.19793,1.26588 2.34157,1.534262 0.53187,0.993831 1.09329,0.891724 2.35914,-0.428406 1.43757,-1.499228 2.5491,-2.05525 6.24562,-3.123341 8.82453,-2.549864 10.65266,-5.501749 6.25094,-10.095379 -1.8797,-1.961669 -2.13899,-2.727786 -1.5348,-4.533077 0.56674,-1.693523 1.27602,-2.428848 2.34318,-2.428848 1.10054,0 1.64392,-0.832211 1.00474,-1.538515 -0.40151,-0.443699 -0.47628,-0.432485 -1.76204,0.262893 -1.67833,0.907656 -5.79642,2.119047 -6.55693,1.929137 -1.11224,-0.277764 -8.33228,-9.649939 -8.33228,-10.815946 0,-0.733636 1.83461,-3.523139 3.75663,-5.712378 1.27254,-1.449384 1.45635,-1.77935 1.1942,-2.143598 -1.08836,-1.512399 -0.88406,-2.379737 0.80412,-3.409127 1.16672,-0.711361 2.09544,-0.649798 2.69972,0.179879 l 0.49865,0.684915 2.22184,-0.954193 c 2.30031,-0.988023 5.06116,-1.6951504 6.62878,-1.6981781 z m -2.0659,1.6109 c -3.47319,0.552356 -9.43093,4.28148 -12.42259,8.349839 -2.04025,2.77457 -2.04352,2.824826 -0.35869,5.103032 1.65445,2.237126 1.60599,2.21411 2.57041,1.207509 l 0.72111,-0.753028 -0.93078,-1.219218 c -1.19384,-1.563529 -1.18876,-2.278391 0.0245,-3.520873 1.21544,-1.244758 1.42916,-1.228816 2.24844,0.169231 0.9286,1.584517 1.05897,1.611941 2.29049,0.478425 2.13681,-1.966788 5.23835,-3.741884 8.69681,-4.977435 2.27092,-0.811315 2.28099,-0.831912 1.10853,-2.245787 -0.56586,-0.682341 -1.24314,-1.573601 -1.505,-1.980227 -0.40369,-0.626895 -1.28549,-0.79559 -2.44321,-0.611468 z m -88.950027,0.876493 c -5.660053,-0.198282 -11.550241,0.869614 -17.955083,3.194121 -2.645205,0.960011 -2.634731,0.994274 0.600294,1.905719 7.315494,2.061016 14.537656,7.375224 19.04924,14.016987 1.936459,2.850788 1.542922,2.797556 3.285126,0.441702 3.14785,-4.256497 6.735642,-7.715942 11.0799,-10.683429 2.446562,-1.671269 3.69515,-2.736931 3.460206,-2.95411 -0.05829,-0.05376 -1.383485,-0.736828 -2.945058,-1.517239 -5.484715,-2.741008 -10.914562,-4.205469 -16.574625,-4.403751 z m 42.363338,1.324054 c -7.953449,0.135515 -16.203714,3.196809 -24.235296,9.304567 -12.111423,9.210328 -17.759973,20.197678 -17.794894,34.612723 -0.01812,7.696478 0.774293,13.164036 1.226663,8.458403 0.08558,-0.891549 0.363971,-2.201433 0.618389,-2.911002 l 0.462988,-1.289998 0.167645,3.741194 c 0.459527,10.223437 4.150888,15.8821 11.348117,17.39524 1.479321,0.311028 1.570409,0.364959 0.907893,0.540689 -0.965316,0.256055 -3.820429,-0.01812 -5.558585,-0.534839 -1.81527,-0.539092 -1.902939,-0.385515 -1.337349,2.343177 1.499381,7.233964 4.274292,10.016618 12.742416,12.778079 3.711864,1.210413 3.758165,1.204018 3.318122,-0.441176 -0.478364,-1.788566 -0.311131,-1.662011 2.364989,1.787042 5.467888,7.047324 9.477052,10.127294 11.876571,9.124694 l 5.26e-4,5.3e-4 c 0.467787,-0.1955 1.47275,-0.90802 2.233017,-1.58322 1.345825,-1.19533 3.28526,-2.22467 7.703243,-4.08765 2.588585,-1.09158 2.30699,-0.55118 -0.825938,1.5843 -2.458508,1.67579 -0.794777,1.82728 3.288318,0.29961 3.014993,-1.12805 8.539514,-5.945695 19.068934,-16.628907 8.7867,-8.915057 9.20461,-9.499183 8.31471,-11.623256 l -0.42734,-1.020184 -0.42787,0.703544 c -0.50485,0.829441 -1.254,1.238631 -0.96164,0.525252 0.49807,-1.215305 0.43293,-2.51866 -0.1703,-3.401661 -0.83922,-1.228549 -1.06496,-1.224296 -1.90891,0.03615 -0.74438,1.111901 -1.26959,0.881334 -0.64606,-0.283654 0.82326,-1.538278 -0.09,-4.077895 -1.68487,-4.684213 -1.2365,-0.470104 -3.71725,0.975675 -3.71725,2.16649 0,0.497755 0.0158,0.496077 0.5971,-0.0484 0.88513,-0.831552 1.02474,-0.685162 0.44011,0.460866 -0.28676,0.562026 -0.521,1.189457 -0.521,1.394299 0,0.257075 -0.38005,0.405915 -1.22613,0.480556 -0.67411,0.05952 -1.44783,0.206367 -1.71946,0.326753 -0.36944,0.163485 -0.44232,0.13606 -0.29057,-0.109625 0.11149,-0.180517 0.61489,-0.500504 1.11863,-0.71099 1.02503,-0.428272 0.76329,-0.843796 -0.5359,-0.850943 -2.86744,-0.01586 -3.56854,1.226314 -3.48149,6.167386 l 0.0713,4.02112 0.90258,0.149005 c 1.019,0.168716 0.88395,0.245974 -1.5481,0.886606 -2.20821,0.581685 -3.00375,0.999907 -4.321799,2.271327 -1.193009,1.150725 -1.284344,1.12503 -0.729084,-0.203823 0.430847,-1.031172 0.348359,-1.137378 -1.49382,-1.927005 -7.611785,-3.2628 -14.537502,-1.146708 -19.371739,5.919394 -0.772512,1.12918 -0.936656,1.269113 -0.804117,0.684904 0.199137,-0.876987 -0.204956,-1.458693 -1.013264,-1.458693 -0.982637,0 -1.790636,-1.099007 -2.309636,-3.141435 -0.606237,-2.385514 -1.000752,-3.190825 -2.173412,-4.435151 -0.869057,-0.922145 -0.890684,-0.982142 -0.293757,-0.805713 2.054045,0.607164 2.543046,1.191012 3.34845,3.995581 0.852375,2.968033 2.888366,3.950763 4.105206,1.981823 0.554734,-0.897553 2.983212,-3.295908 4.257938,-4.205263 2.41819,-1.725057 0.03429,-7.990266 -3.761955,-9.887293 -2.470392,-1.234449 -2.702514,-1.160961 -4.445799,1.405472 -1.804487,2.656481 -3.536743,4.232245 -5.998154,5.456406 -1.995736,0.992533 -3.108574,1.079347 -1.558741,0.121334 1.942669,-1.20062 3.419353,-3.256518 4.444728,-6.188672 l 0.581139,-1.662516 0.182537,1.328843 c 0.243975,1.774004 0.509886,1.847606 1.26764,0.352302 7.064681,-13.94146 -12.069447,-26.836496 -25.0873,-16.907238 -1.33533,1.018475 -0.637944,-0.08465 0.964296,-1.525209 2.099593,-1.887749 6.621465,-3.813045 8.954932,-3.813045 0.258743,0 0.04768,-0.573076 -0.519937,-1.4092 -0.790441,-1.164792 -2.280091,-4.724273 -2.144669,-5.124854 0.05623,-0.166893 0.311253,0.102468 0.566238,0.599234 0.254953,0.496653 0.622209,0.996096 0.815826,1.109583 0.193462,0.113528 0.352292,0.425791 0.352292,0.694492 0,0.691609 2.739505,3.837761 3.510235,4.031233 0.95648,0.240052 1.026837,-0.04181 0.280462,-1.121827 -1.176439,-1.702329 -2.457539,-4.804445 -3.123876,-7.563291 -0.700301,-2.899395 -0.69268,-3.546474 0.02018,-1.762563 2.588615,6.470648 5.536114,10.457434 8.571755,11.593988 2.546815,0.953524 6.293034,3.934739 7.399909,5.88852 0.210722,0.372003 0.665368,1.140642 1.010071,1.708291 1.288,2.121169 1.790719,4.154884 1.801408,7.29081 0.01133,3.180362 -0.109161,2.962647 1.801419,3.286712 3.798359,0.644329 6.445808,4.051469 6.818233,8.774517 0.159407,2.018206 0.177099,2.062252 0.807845,1.974913 3.034076,-0.420158 6.899868,-0.109234 9.80535,0.789751 6.54253,2.023983 6.7086,1.946242 6.7086,-3.15368 0,-5.253057 0.40911,-6.115688 3.36867,-7.098696 1.24252,-0.412702 1.44128,-0.682577 1.11917,-1.522027 -0.21844,-0.56941 -0.4962,-0.516282 -1.73223,0.332087 -5.05409,3.468847 -12.008821,5.008021 -16.173355,3.579408 -1.161084,-0.398315 -1.160611,-0.398613 1.107987,-0.424143 7.030717,-0.07909 14.090438,-3.83534 18.627748,-9.911246 1.28024,-1.714388 0.4951,-5.337719 -1.15642,-5.337719 -0.76971,0 -2.58183,0.791193 -2.57733,1.125021 0.009,0.646389 0.47094,1.007126 1.12929,0.881281 0.99168,-0.18959 0.87331,0.545714 -0.29483,1.828019 -2.88973,3.172144 -8.924178,4.9386 -16.869976,4.9386 -4.457456,0 -4.52252,0.02605 -3.495859,1.394834 1.060162,1.413464 1.074837,1.521193 0.139428,1.039339 -7.37508,-3.799029 -11.915674,-20.975802 -8.004992,-30.283479 0.853353,-2.031131 0.823488,-2.097339 -0.533767,-1.175039 -1.029288,0.699425 -1.987755,2.156852 -2.939744,4.471338 -0.550441,1.338235 -0.601088,1.390694 -0.60668,0.626905 -0.04521,-6.096955 8.314794,-11.209864 11.021891,-6.741069 1.108017,1.829069 1.010792,2.264644 -0.236819,1.059029 -0.882208,-0.852477 -1.329759,-1.096813 -2.011626,-1.096813 h -0.877018 l 0.655102,0.709919 c 1.688096,1.827782 4.088769,6.232213 5.410105,9.926148 1.496086,4.182329 2.039647,4.613351 7.60266,6.026887 4.675745,1.188045 8.099175,1.116431 10.489185,-0.219785 1.2314,-0.688334 1.22469,-0.961639 -0.0234,-0.961639 -3.31151,0 -7.812022,-1.988713 -11.350773,-5.015765 -1.684606,-1.441001 -1.611468,-1.457457 0.637543,-0.140488 7.8446,4.593063 17.40115,4.834773 27.27082,0.689693 2.17623,-0.913968 2.24416,-1.041337 1.16494,-2.17819 -1.16215,-1.224295 -1.8849,-2.311727 -4.92849,-7.417467 -9.2224,-15.470609 -21.654448,-23.37234 -34.91021,-23.146469 z m 52.395379,3.461803 c -2.72344,-0.460465 -10.1328,3.805053 -13.94567,8.384966 -2.25486,2.708425 -2.24022,2.577668 -0.53696,4.840674 1.62661,2.161136 1.66271,2.181918 2.39958,1.363435 0.92018,-1.022213 0.92891,-1.205326 0.10324,-2.14574 -1.03561,-1.179498 -1.00177,-1.813138 0.16125,-3.004129 1.20056,-1.229516 1.5751,-1.22067 2.48048,0.05911 0.90758,1.282851 0.98069,1.279133 2.54485,-0.127193 1.70112,-1.529422 4.44385,-3.157058 7.37224,-4.37502 2.65444,-1.104011 2.71225,-1.198374 1.60877,-2.625215 -0.42788,-0.553283 -1.02705,-1.39506 -1.33151,-1.871137 -0.17366,-0.271555 -0.4672,-0.433927 -0.85627,-0.499712 z m -26.18252,4.061572 c -0.79662,0.04181 -0.47072,0.619294 0.951,1.956808 2.10338,1.978868 1.97915,1.947489 1.75352,0.442773 -0.25345,-1.689951 -0.51699,-2.080789 -1.53267,-2.271327 -0.51602,-0.0968 -0.90631,-0.142188 -1.17185,-0.128254 z m -9.74733,6.099798 c -0.0317,-0.182753 0.25963,0.05963 0.85786,0.635411 4.35688,4.193966 3.65461,11.433027 -0.88447,9.116182 -0.499107,-0.254748 -0.794873,-0.223328 -1.677421,0.177212 -1.112487,0.505149 -3.000328,0.623815 -3.93065,0.247466 -0.635885,-0.257239 -1.914236,-1.713564 -1.914236,-2.180857 0,-0.462277 -0.856154,-1.181434 -1.406543,-1.181434 -0.748136,0 -0.0072,-0.697046 1.104795,-1.038278 0.520822,-0.159849 1.099089,-0.339038 1.285209,-0.398068 0.719187,-0.228178 -1.539916,-2.884679 -2.402774,-2.82532 -0.478075,0.03295 -1.192463,0.556516 -1.265519,0.927047 -0.316413,1.605865 -0.484336,1.906965 -0.714707,1.284148 -0.481741,-1.302201 0.420579,-3.774271 1.47412,-4.038689 1.104269,-0.277166 2.210031,0.430683 5.279719,3.378789 3.869117,3.715881 5.438607,4.481647 6.345667,3.097266 0.70081,-1.069503 0.29528,-3.069142 -1.07127,-5.285579 -0.69348,-1.124794 -1.04807,-1.732544 -1.07978,-1.915296 z m -17.654944,1.652938 c 0.335455,-0.02348 0.631797,0.01308 0.876493,0.118142 0.245386,0.105361 1.635699,1.602755 3.08982,3.327163 8.867057,10.514754 9.135285,10.726352 13.622641,10.765392 2.68457,0.02369 2.70105,0.02698 1.8062,0.429993 -1.08399,0.488301 -4.832515,0.666223 -6.364295,0.301748 -1.237446,-0.294436 -5.764786,-4.762428 -10.115594,-9.982561 -2.790059,-3.347544 -3.123506,-3.518073 -5.03598,-2.576793 -2.975489,1.46446 -4.981925,3.356194 -7.447271,7.020995 -0.673741,1.001504 -1.225242,1.698704 -1.225603,1.549699 -3.4e-4,-0.14917 0.138944,-0.410302 0.309194,-0.580604 0.170292,-0.170292 0.233956,-0.30973 0.142085,-0.30973 -0.279576,0 0.555693,-1.779751 1.643897,-3.502779 2.073559,-3.283252 6.350241,-6.396645 8.698413,-6.560665 z m 55.611864,0.324621 c -1.0793,0.01545 -2.30701,0.956902 -4.35533,2.833837 -1.88619,1.728342 -2.02021,2.211113 -0.91854,3.312798 1.1429,1.142867 1.95617,1.002667 4.06263,-0.699281 1.78711,-1.443885 1.55385,-0.316496 -0.30068,1.453379 -2.66105,2.539575 -0.48971,4.678817 2.61937,2.580521 1.99986,-1.349697 1.91995,-0.787001 -0.18254,1.283078 -2.88006,2.83568 -0.45702,4.2549 2.78754,1.632712 1.66383,-1.344691 1.38211,-0.373671 -0.3358,1.157481 l -1.43261,1.276692 0.81688,0.687572 c 0.92971,0.782285 1.36689,0.735191 2.91792,-0.314518 3.05579,-2.068102 2.1901,-6.94483 -2.21544,-12.48219 -1.45353,-1.826897 -2.38412,-2.737497 -3.4634,-2.722081 z m -74.993706,1.981298 c 0.152579,0.29628 0.452793,1.408036 0.956315,3.440516 1.329656,5.372856 3.340417,9.512592 5.828388,12.000562 1.12431,1.1243 1.057515,1.215501 -0.573684,0.78177 -3.168807,-0.84257 -5.624195,-5.350323 -6.016784,-11.045308 -0.07343,-1.064374 -0.19166,-2.741215 -0.262893,-3.726303 -0.08867,-1.2286 -0.08393,-1.747528 0.06869,-1.451237 z m 43.062606,2.028649 c -5.2e-4,-0.161404 0.12212,-0.0072 0.36773,0.31079 0.54019,0.699312 1.10979,2.099954 1.52735,3.757702 0.36269,1.439982 1.20651,2.139788 3.11856,2.585835 1.79517,0.418767 4.89175,1.801367 4.89175,2.18406 0,0.134649 -0.0289,0.233152 -0.0644,0.218724 -0.0354,-0.01359 -0.64481,-0.26001 -1.3544,-0.545487 h -5.3e-4 c -0.70953,-0.285488 -2.50777,-0.730475 -3.99611,-0.988785 -3.17769,-0.551501 -3.61561,-0.891343 -3.61561,-2.807226 0,-0.667975 -0.22571,-2.077618 -0.50236,-3.132383 -0.24765,-0.944884 -0.37147,-1.421826 -0.372,-1.58323 z m -12.645558,0.874897 c -0.57839,0.07652 -0.479991,0.427624 0.123991,1.404946 1.003459,1.62362 2.126863,2.013346 3.603897,1.249547 h 5.36e-4 c 0.891878,-0.461206 0.979454,-1.019587 0.223513,-1.424102 -0.422877,-0.226159 -0.633939,-0.200867 -0.98825,0.119748 -0.489403,0.442865 -1.455037,0.545518 -1.681681,0.178808 -0.07796,-0.125792 0.09979,-0.291223 0.39434,-0.368264 1.071861,-0.280287 0.479795,-1.072026 -0.86638,-1.158552 -0.349645,-0.02255 -0.617173,-0.0277 -0.809966,-0.0021 z m -33.710155,0.08084 0.491195,1.289998 c 0.270225,0.709589 0.866545,2.361076 1.325115,3.669888 1.076515,3.072695 3.457559,6.885265 5.356358,8.577605 1.600284,1.426336 1.35327,1.686974 -0.838183,0.88501 -3.151208,-1.153227 -5.695809,-6.247001 -6.173235,-12.358189 z m 70.527683,0.74931 c -0.23574,-0.07137 -0.44543,-0.06581 -0.61307,0.03779 -1.51298,0.935069 -0.94424,3.134916 1.28042,4.954027 1.48082,1.210825 1.93295,1.309142 2.83171,0.617853 1.09001,-0.838348 -1.84889,-5.110076 -3.49906,-5.609664 z M 80.877969,35.97291 c -0.407542,6.49e-4 -1.681537,2.760957 -2.083466,4.514983 -0.425719,1.857976 0.781285,7.141506 2.519854,11.030417 0.960052,2.147501 1.109109,2.161888 1.317669,0.128779 0.180518,-1.761111 0.895194,-4.321797 1.205913,-4.321797 0.230279,0 0.286167,0.132528 1.458693,3.474582 1.746055,4.976364 3.376492,7.378571 3.815166,5.620838 0.578761,-2.318956 1.358172,-2.642887 2.499628,-1.039874 0.608008,0.853878 0.503316,1.158036 -0.238939,0.694492 -1.095712,-0.684297 -1.598389,0.312582 -1.605042,3.184543 l -0.0021,1.226128 -0.870644,-0.968023 c -2.007671,-2.23344 -3.598759,-5.27353 -4.321262,-8.256712 -0.60222,-2.486642 -0.812891,-1.838245 -0.649263,1.998856 0.08764,2.057732 0.226479,4.205428 0.308134,4.773087 l 0.14848,1.032419 -0.801996,-0.903104 c -1.660291,-1.869541 -3.532448,-5.536567 -4.93965,-9.676024 -0.806517,-2.372414 -0.988291,-1.131673 -0.364012,2.485798 0.895761,5.190824 4.007351,11.694777 6.197724,12.955291 0.456098,0.26246 6.364751,0.646183 7.743684,0.502904 0.283696,-0.02956 1.50241,-0.180559 2.70825,-0.335805 6.70419,-0.861983 9.9352,-2.627718 9.65155,-5.274395 -0.20049,-1.871292 -0.37917,-2.126822 -1.00263,-1.437942 -0.65813,0.727251 -1.07055,0.652506 -1.38578,-0.25172 -0.34402,-0.9869 -0.69312,-0.980062 -1.2123,0.02399 -0.65824,1.272923 -0.71607,0.682762 -0.0687,-0.702473 0.32296,-0.691218 0.62807,-1.314529 0.67799,-1.385257 0.089,-0.126473 0.65044,0.541193 1.0734,1.277228 0.281,0.489053 0.7684,0.100923 1.80673,-1.437407 0.92606,-1.372167 0.84178,-1.427757 -2.12603,-1.407614 -3.036481,0.02039 -5.717019,-0.343106 -9.411541,-1.276157 -4.67925,-1.181789 -4.601282,-1.117343 -5.781511,-4.768293 C 85.437512,42.169656 82.055273,35.974393 80.878,35.972952 Z m 11.646674,0.766344 c 0.08362,-0.08167 0.534272,0.123043 1.500741,0.663618 1.407202,0.78695 1.987054,0.965366 3.137707,0.965366 1.24105,0 1.365576,0.04562 1.032418,0.378914 -0.478899,0.478919 -2.421732,0.65991 -3.270214,0.304405 -0.740011,-0.310039 -1.987271,-1.435903 -2.367121,-2.136688 -0.0482,-0.08898 -0.06138,-0.148408 -0.03357,-0.175615 z m -2.718888,5.43032 c 0.05036,-0.150993 0.582468,0.39572 1.181969,1.214954 0.599584,0.819246 1.687057,2.099419 2.416604,2.844486 1.657151,1.692329 1.021729,1.875288 -0.748239,0.215532 -1.266806,-1.187902 -3.008598,-3.800306 -2.850334,-4.274972 z m 22.292855,0.99623 c 1.13571,-0.140715 2.29119,0.434514 1.65932,1.1958 -0.32656,0.393455 -0.51961,0.419911 -1.41612,0.19371 -1.57746,-0.398058 -1.84045,-0.597555 -1.30542,-0.990381 0.30715,-0.225531 0.68364,-0.35222 1.06222,-0.399129 z m 44.28821,2.383619 c -0.60317,0.04727 -1.45149,0.253501 -2.53688,0.617853 -5.08596,1.707272 -9.24623,4.832868 -11.92181,8.955992 l -1.11916,1.724254 1.50233,2.076546 c 1.6937,2.341819 1.66399,2.324652 2.39373,1.396966 0.69378,-0.882013 0.67894,-1.035837 -0.23895,-2.416614 -0.9908,-1.490464 -0.97304,-1.842972 0.15859,-3.09567 1.19262,-1.320069 1.6079,-1.29872 2.50974,0.12879 0.89283,1.413278 0.71727,1.418221 2.34743,-0.06498 1.80558,-1.642671 4.81001,-3.315527 7.79957,-4.343084 3.08086,-1.058999 2.96733,-0.858059 1.53054,-2.70824 -0.67075,-0.863682 -1.28251,-1.734902 -1.35971,-1.936058 -0.10411,-0.27109 -0.46224,-0.383104 -1.06542,-0.335804 z m -22.28859,0.670539 c -0.3452,-0.07734 -0.9645,0.208426 -1.81153,0.949404 -1.7916,1.567237 -4.12316,2.749 -7.42385,3.763016 -6.22825,1.913412 -9.5005,4.851642 -8.8767,7.9704 0.21593,1.078225 0.4399,1.020071 1.22454,-0.318772 1.42654,-2.434286 5.0378,-4.926118 8.61273,-5.942811 1.79823,-0.51138 1.72676,-0.3988 -0.77377,1.217621 -3.44355,2.226056 -3.63792,2.775426 -0.69344,1.959466 3.78882,-1.049915 6.62628,-3.141023 8.96717,-6.608026 1.16357,-1.723307 1.35018,-2.861385 0.77485,-2.990298 z m 26.44596,4.71934 v 5.25e-4 c -3.30778,0 -13.20788,6.927447 -15.14361,10.596697 -0.48444,0.918242 -0.48456,0.918376 1.02284,2.901414 1.66061,2.184637 1.74535,2.230598 2.60607,1.42198 l -5.3e-4,-0.0021 c 0.77711,-0.730022 0.75418,-1.03314 -0.17669,-2.318153 -0.98294,-1.356875 -0.97233,-1.544385 0.15913,-2.796589 1.17001,-1.295064 1.6534,-1.296413 2.67524,-0.0041 l 0.81317,1.027094 1.59493,-1.329903 c 2.89338,-2.412227 7.03299,-4.682741 9.5201,-5.221709 0.93643,-0.202989 -1.98849,-4.274972 -3.07065,-4.274972 z M 39.892977,58.230647 c 0.05932,0.392208 0.05726,0.972627 -0.0041,1.289988 -0.06107,0.31734 -0.109759,-0.0041 -0.107493,-0.713112 h 5.25e-4 c 0.0021,-0.709538 0.05201,-0.969125 0.111232,-0.576876 z m 14.545967,28.3059 c 0.165503,0.01514 0.52591,0.197478 1.245818,0.561449 1.71826,0.868749 2.025601,0.935409 6.341941,1.375144 5.277092,0.537609 6.335215,0.819924 7.850127,2.09464 0.707313,0.595124 2.046732,2.686428 1.720526,2.686428 -0.06406,0 -0.01627,0.348029 0.105371,0.773778 0.284715,0.992688 0.252616,0.980732 -0.764736,-0.28524 -1.75623,-2.185388 -3.61572,-2.910806 -8.136974,-3.17337 -1.277218,-0.07404 -2.699384,-0.246972 -3.16059,-0.384227 -0.461237,-0.137379 -0.838709,-0.185307 -0.838709,-0.106968 0,0.07858 -0.174019,-0.0021 -0.386894,-0.178283 -0.212988,-0.176646 -0.38742,-0.246643 -0.38742,-0.15539 0,0.728095 -3.504046,-1.916975 -3.666696,-2.767846 -0.05788,-0.303345 -0.08723,-0.455264 0.07827,-0.440115 z m 36.712687,1.471473 c -0.02729,0.05592 -0.176224,0.195749 -0.45235,0.429992 -1.425976,1.210197 -6.605967,2.030071 -7.847995,1.242101 -0.442104,-0.280472 -2.267053,0.205501 -3.488949,0.929179 -0.997775,0.590768 -1.209105,0.67163 -1.209105,0.463523 0,-1.723337 2.550295,-2.786866 6.45104,-2.690681 3.74799,0.09248 5.644204,0.001 6.269028,-0.299617 0.211372,-0.101952 0.305673,-0.130437 0.278331,-0.07446 z" />
  </g>
</svg>
